<?xml version="1.0" encoding="utf-8"?>
<!-- Generator: Adobe Illustrator 19.2.0, SVG Export Plug-In . SVG Version: 6.00 Build 0)  -->
<!DOCTYPE svg PUBLIC "-//W3C//DTD SVG 1.1//EN" "http://www.w3.org/Graphics/SVG/1.1/DTD/svg11.dtd">
<svg version="1.1" id="レイヤー_4" xmlns="http://www.w3.org/2000/svg" xmlns:xlink="http://www.w3.org/1999/xlink" x="0px"
	 y="0px" viewBox="0 0 340.2 340.2" enable-background="new 0 0 340.2 340.2" xml:space="preserve">
<path fill="#34CDD7" d="M148.4,203.1c-2.9,0-5.8-1.1-8-3.3c-4.4-4.4-4.4-11.6,0-16l18.3-18.3v-37.8c0-6.3,5.1-11.3,11.3-11.3
	s11.3,5.1,11.3,11.3v47.2l-25,25C154.2,202,151.3,203.1,148.4,203.1z M273.5,170.1c0,57.1-46.4,103.5-103.5,103.5
	S66.6,227.1,66.6,170.1S113,66.6,170.1,66.6S273.5,113,273.5,170.1z M250.5,177.2h-16.7V163h16.7c-3.4-38.9-34.5-70-73.4-73.4v16.7
	H163V89.6C124.1,93,93,124.1,89.6,163h17v14.2h-17c3.4,38.9,34.5,70,73.4,73.4v-16.7h14.2v16.7C216.1,247.1,247.1,216.1,250.5,177.2
	z"/>
</svg>
