<?xml version="1.0" encoding="utf-8"?>
<!-- Generator: Adobe Illustrator 19.2.0, SVG Export Plug-In . SVG Version: 6.00 Build 0)  -->
<!DOCTYPE svg PUBLIC "-//W3C//DTD SVG 1.1//EN" "http://www.w3.org/Graphics/SVG/1.1/DTD/svg11.dtd">
<svg version="1.1" id="レイヤー_4" xmlns="http://www.w3.org/2000/svg" xmlns:xlink="http://www.w3.org/1999/xlink" x="0px"
	 y="0px" viewBox="0 0 340.2 340.2" enable-background="new 0 0 340.2 340.2" xml:space="preserve">
<g>
	<path fill="#34CDD7" d="M290.8,164.4c-29.5-38.3-73.5-60.3-120.7-60.3c-47.2,0-91.2,22-120.7,60.3l-4.4,5.7l4.4,5.7
		c29.5,38.3,73.5,60.3,120.7,60.3c47.2,0,91.2-22,120.7-60.3l4.4-5.7L290.8,164.4z M131.3,211.7c-24-7.4-45.7-21.7-62.7-41.6
		c17-19.9,38.7-34.2,62.7-41.6c-11.2,10.4-18.2,25.2-18.2,41.6C113.2,186.5,120.2,201.3,131.3,211.7z M170.1,205.7
		c-19.5,0-35.4-15.9-35.4-35.4c0-19.5,15.9-35.4,35.4-35.4c19.5,0,35.4,15.9,35.4,35.4C205.5,189.8,189.6,205.7,170.1,205.7z
		 M208.1,211.9c11.3-10.4,18.4-25.3,18.4-41.8s-7.1-31.4-18.4-41.8c24.3,7.3,46.2,21.7,63.4,41.8
		C254.4,190.2,232.4,204.5,208.1,211.9z"/>
	<path fill="#34CDD7" d="M170.1,149c-11.7,0-21.3,9.5-21.3,21.3s9.5,21.3,21.3,21.3s21.3-9.5,21.3-21.3S181.8,149,170.1,149z"/>
</g>
</svg>
