<?xml version="1.0" encoding="utf-8"?>
<!-- Generator: Adobe Illustrator 19.2.0, SVG Export Plug-In . SVG Version: 6.00 Build 0)  -->
<!DOCTYPE svg PUBLIC "-//W3C//DTD SVG 1.1//EN" "http://www.w3.org/Graphics/SVG/1.1/DTD/svg11.dtd">
<svg version="1.1" id="レイヤー_4" xmlns="http://www.w3.org/2000/svg" xmlns:xlink="http://www.w3.org/1999/xlink" x="0px"
	 y="0px" viewBox="0 0 340.2 340.2" enable-background="new 0 0 340.2 340.2" xml:space="preserve">
<path fill="#34CDD7" d="M255.1,170c0,7.8-6.3,14.2-14.2,14.2c-7.8,0-14.2-6.3-14.2-14.2c0-7.8,6.3-14.2,14.2-14.2
	C248.8,155.8,255.1,162.2,255.1,170z M240.9,70.8c-7.8,0-14.2,6.3-14.2,14.2s6.3,14.2,14.2,14.2c7.8,0,14.2-6.3,14.2-14.2
	S248.8,70.8,240.9,70.8z M240.9,240.9c-7.8,0-14.2,6.3-14.2,14.2s6.3,14.2,14.2,14.2c7.8,0,14.2-6.3,14.2-14.2
	S248.8,240.9,240.9,240.9z M212.6,99.3V70.9h-51.1L119,156H85v28.3H119l42.5,85h51.1V241H179l-28.3-56.7h61.9V156h-61.9L179,99.3
	H212.6z"/>
</svg>
