<?xml version="1.0" encoding="utf-8"?>
<!-- Generator: Adobe Illustrator 18.1.1, SVG Export Plug-In . SVG Version: 6.00 Build 0)  -->
<!DOCTYPE svg PUBLIC "-//W3C//DTD SVG 1.1//EN" "http://www.w3.org/Graphics/SVG/1.1/DTD/svg11.dtd">
<svg version="1.1" id="レイヤー_37" xmlns="http://www.w3.org/2000/svg" xmlns:xlink="http://www.w3.org/1999/xlink" x="0px"
	 y="0px" viewBox="0 0 340.2 340.2" enable-background="new 0 0 340.2 340.2" xml:space="preserve">
<path fill="#34CDD7" d="M103.4,123.4L75,95.1l20-20l28.3,28.3L103.4,123.4z M265.1,245.1l-28.3-28.3l-20,20l28.3,28.3L265.1,245.1z
	 M175.1,136.7l-10,10l2.1,2.1h-25.4V163h59.6L175.1,136.7z M175.1,193.4l-2.1-2.1h25.4v-14.2h-59.6l26.3,26.3L175.1,193.4z
	 M227.1,133.1c6.9,10.7,11,23.4,11,37c0,37.5-30.5,68-68,68c-13.6,0-26.3-4-37-11l-11.7,11.7l-20-20l11.7-11.7
	c-6.9-10.7-11-23.4-11-37c0-37.5,30.5-68,68-68c13.6,0,26.3,4,37,11l11.7-11.7l20,20L227.1,133.1z M215.4,170.1
	c0-25-20.3-45.4-45.4-45.4c-25,0-45.4,20.3-45.4,45.4s20.3,45.4,45.4,45.4C195.1,215.4,215.4,195.1,215.4,170.1z M248.9,111.3
	l16.2-16.2l-20-20l-16.2,16.2L248.9,111.3z M91.3,228.8L75,245.1l20,20l16.2-16.2L91.3,228.8z"/>
</svg>
