<?xml version="1.0" encoding="utf-8"?>
<!-- Generator: Adobe Illustrator 19.2.0, SVG Export Plug-In . SVG Version: 6.00 Build 0)  -->
<!DOCTYPE svg PUBLIC "-//W3C//DTD SVG 1.1//EN" "http://www.w3.org/Graphics/SVG/1.1/DTD/svg11.dtd">
<svg version="1.1" id="レイヤー_4" xmlns="http://www.w3.org/2000/svg" xmlns:xlink="http://www.w3.org/1999/xlink" x="0px"
	 y="0px" viewBox="0 0 340.2 340.2" enable-background="new 0 0 340.2 340.2" xml:space="preserve">
<path fill="#34CDD7" d="M92.2,266.5l-0.5,0c-33.4-0.3-60.4-27.5-60.4-60.9c0-24,14.3-45.7,35.7-55.5c2.9-27,25.8-48,53.5-48
	c5.8,0,11.6,0.9,17.1,2.8c14-19.4,36.5-31.1,60.9-31.1c41.4,0,75.1,33.7,75.1,75.1c0,0.4,0,0.9,0,1.3c21.3,9.8,35.4,31.4,35.4,55.3
	c0,33.6-27.3,60.9-60.9,60.9L92.2,266.5z"/>
</svg>
