<?xml version="1.0" encoding="utf-8"?>
<!-- Generator: Adobe Illustrator 19.2.0, SVG Export Plug-In . SVG Version: 6.00 Build 0)  -->
<!DOCTYPE svg PUBLIC "-//W3C//DTD SVG 1.1//EN" "http://www.w3.org/Graphics/SVG/1.1/DTD/svg11.dtd">
<svg version="1.1" id="レイヤー_4" xmlns="http://www.w3.org/2000/svg" xmlns:xlink="http://www.w3.org/1999/xlink" x="0px"
	 y="0px" viewBox="0 0 340.2 340.2" enable-background="new 0 0 340.2 340.2" xml:space="preserve">
<path fill="#34CDD7" d="M113,154.3c-4.2,0-8.2-2.3-10.1-6.3c-5.3-10.5-7.9-21.8-7.9-33.6s2.7-23.1,7.9-33.6
	c2.8-5.6,9.6-7.9,15.2-5.1c5.6,2.8,7.9,9.6,5.1,15.2c-3.7,7.3-5.5,15.2-5.5,23.4s1.9,16.1,5.5,23.4c2.8,5.6,0.5,12.4-5.1,15.2
	C116.5,154,114.7,154.3,113,154.3z M80.1,172.2c5.6-2.8,7.9-9.6,5.1-15.2c-6.6-13.3-10-27.5-10-42.5s3.4-29.2,10-42.5
	c2.8-5.6,0.5-12.4-5.1-15.2c-5.6-2.8-12.4-0.5-15.2,5.1C56.6,78.3,52.4,96,52.4,114.5s4.2,36.2,12.4,52.6c2,4,6,6.3,10.1,6.3
	C76.7,173.4,78.4,173,80.1,172.2z M275.3,167.1c8.2-16.4,12.4-34.1,12.4-52.6c0-18.3-4.1-35.9-12.2-52.2c-2.8-5.6-9.6-7.9-15.2-5.1
	c-5.6,2.8-7.9,9.6-5.1,15.2c6.5,13.2,9.8,27.3,9.8,42.1c0,14.9-3.4,29.2-10,42.5c-2.8,5.6-0.5,12.4,5.1,15.2
	c1.6,0.8,3.4,1.2,5.1,1.2C269.3,173.4,273.3,171.1,275.3,167.1z M237.3,148.1c5.3-10.5,7.9-21.8,7.9-33.6c0-11.7-2.6-22.9-7.8-33.4
	c-2.8-5.6-9.6-7.9-15.2-5.1c-5.6,2.8-7.9,9.6-5.1,15.2c3.6,7.3,5.5,15.1,5.5,23.3c0,8.2-1.9,16.1-5.5,23.4
	c-2.8,5.6-0.5,12.4,5.1,15.2c1.6,0.8,3.4,1.2,5.1,1.2C231.3,154.3,235.3,152.1,237.3,148.1z M170.1,86.1
	c-15.7,0-28.3,12.7-28.3,28.3s12.7,28.3,28.3,28.3s28.3-12.7,28.3-28.3S185.7,86.1,170.1,86.1z M87.1,284.6L137.7,148l11.4,6
	c6.5,3.4,13.6,5.1,21,5.1c7.4,0,14.4-1.7,21-5.1l11.4-6L253,284.6h-24.2l-4.3-11.7l-54.4-26.5l-54.4,26.5l-4.3,11.7H87.1z
	 M207.9,228l-21.6,10.5l31.1,15.1L207.9,228z M142.8,199.5h54.6l-7.6-20.6c-12.7,3.8-26.6,3.8-39.3,0L142.8,199.5z M137.2,214.6
	l32.9,16l32.9-16l-0.3-0.9h-65.1L137.2,214.6z M122.8,253.6l31.1-15.1L132.3,228L122.8,253.6z"/>
</svg>
