<?xml version="1.0" encoding="utf-8"?>
<!-- Generator: Adobe Illustrator 19.2.0, SVG Export Plug-In . SVG Version: 6.00 Build 0)  -->
<!DOCTYPE svg PUBLIC "-//W3C//DTD SVG 1.1//EN" "http://www.w3.org/Graphics/SVG/1.1/DTD/svg11.dtd">
<svg version="1.1" id="レイヤー_4" xmlns="http://www.w3.org/2000/svg" xmlns:xlink="http://www.w3.org/1999/xlink" x="0px"
	 y="0px" viewBox="0 0 340.2 340.2" enable-background="new 0 0 340.2 340.2" xml:space="preserve">
<path fill="#34CDD7" d="M78,63.9c2.4-0.1,4.7-0.1,7.1-0.1c105.5,0,191.3,85.8,191.3,191.3c0,2.4-0.1,4.7-0.1,7.1h-28.4
	c0.1-2.4,0.2-4.7,0.2-7.1c0-89.9-73.1-163-163-163c-2.4,0-4.7,0.1-7.1,0.2V63.9z M85,118.6c-2.4,0-4.7,0.1-7.1,0.2V151
	c2.3-0.2,4.7-0.2,7.1-0.2c57.6,0,104.4,46.8,104.4,104.4c0,2.4-0.1,4.7-0.2,7.1h32.2c0.1-2.3,0.2-4.7,0.2-7.1
	C221.6,179.8,160.3,118.6,85,118.6z M85,177.2c-2.4,0-4.8,0.1-7.1,0.3V206c2.3-0.3,4.7-0.5,7.1-0.5c27.4,0,49.6,22.3,49.6,49.6
	c0,2.4-0.2,4.8-0.5,7.1h28.5c0.2-2.3,0.3-4.7,0.3-7.1C163,212.1,128,177.2,85,177.2z M85,233.9c-11.7,0-21.3,9.5-21.3,21.3
	s9.5,21.3,21.3,21.3s21.3-9.5,21.3-21.3S96.8,233.9,85,233.9z"/>
</svg>
