<?xml version="1.0" encoding="utf-8"?>
<!-- Generator: Adobe Illustrator 19.2.0, SVG Export Plug-In . SVG Version: 6.00 Build 0)  -->
<!DOCTYPE svg PUBLIC "-//W3C//DTD SVG 1.1//EN" "http://www.w3.org/Graphics/SVG/1.1/DTD/svg11.dtd">
<svg version="1.1" id="レイヤー_4" xmlns="http://www.w3.org/2000/svg" xmlns:xlink="http://www.w3.org/1999/xlink" x="0px"
	 y="0px" viewBox="0 0 340.2 340.2" enable-background="new 0 0 340.2 340.2" xml:space="preserve">
<path fill="#34CDD7" d="M233.9,120.2c0-35.2-28.6-63.8-63.8-63.8c-35.2,0-63.8,28.6-63.8,63.8c0,29.3,19.8,54,46.8,61.5v102.1h34
	v-14.2h11.3h14.2v-14.2h-14.2v-28.3h14.2v-14.2h-25.5v-31.2C214.1,174.2,233.9,149.5,233.9,120.2z M170.1,113.1
	c-7.8,0-14.2-6.3-14.2-14.2s6.3-14.2,14.2-14.2c7.8,0,14.2,6.3,14.2,14.2S177.9,113.1,170.1,113.1z"/>
</svg>
