<?xml version="1.0" encoding="utf-8"?>
<!-- Generator: Adobe Illustrator 19.2.0, SVG Export Plug-In . SVG Version: 6.00 Build 0)  -->
<!DOCTYPE svg PUBLIC "-//W3C//DTD SVG 1.1//EN" "http://www.w3.org/Graphics/SVG/1.1/DTD/svg11.dtd">
<svg version="1.1" id="レイヤー_4" xmlns="http://www.w3.org/2000/svg" xmlns:xlink="http://www.w3.org/1999/xlink" x="0px"
	 y="0px" viewBox="0 0 340.2 340.2" enable-background="new 0 0 340.2 340.2" xml:space="preserve">
<path fill="#34CDD7" d="M255.1,116.9h-35.4V67.3h-14.2v49.6h-70.9V67.3h-14.2v49.6H85c-11.7,0-21.3,9.5-21.3,21.3v113.4
	c0,11.7,9.5,21.3,21.3,21.3h170.1c11.7,0,21.3-9.5,21.3-21.3V138.2C276.4,126.5,266.8,116.9,255.1,116.9z M262.2,251.6
	c0,3.9-3.2,7.1-7.1,7.1H85c-3.9,0-7.1-3.2-7.1-7.1V138.2c0-3.9,3.2-7.1,7.1-7.1h170.1c3.9,0,7.1,3.2,7.1,7.1V251.6z M155.9,202.5
	h-16.4c-1.2,1.9-2.9,3.5-4.8,4.6v16.1h-14.2v-16.1c-2-1.1-3.6-2.7-4.8-4.6H99.2v-14.2H115c1.2-2.4,3.2-4.4,5.5-5.7v-16.1h14.2v16.1
	c2.3,1.3,4.2,3.3,5.5,5.7h15.8V202.5z M240.9,202h-16.1c-1.2,2.1-3,3.9-5.2,5.2v16.1h-14.2v-16.1c-2.1-1.2-3.9-3-5.2-5.2h-16.1
	v-14.2h16.1c1.2-2.1,3-3.9,5.2-5.2v-16.1h14.2v16.1c2.1,1.2,3.9,3,5.2,5.2h16.1V202z"/>
</svg>
