<?xml version="1.0" encoding="utf-8"?>
<!-- Generator: Adobe Illustrator 19.2.0, SVG Export Plug-In . SVG Version: 6.00 Build 0)  -->
<!DOCTYPE svg PUBLIC "-//W3C//DTD SVG 1.1//EN" "http://www.w3.org/Graphics/SVG/1.1/DTD/svg11.dtd">
<svg version="1.1" id="レイヤー_4" xmlns="http://www.w3.org/2000/svg" xmlns:xlink="http://www.w3.org/1999/xlink" x="0px"
	 y="0px" viewBox="0 0 340.2 340.2" enable-background="new 0 0 340.2 340.2" xml:space="preserve">
<path fill="#34CDD7" d="M63.8,63.8V49.6H49.6v70.9h70.9V63.8H63.8z M72.3,112H58.1V97.8h14.2V112z M148.8,63.8V49.6h-14.2v70.9h70.9
	V63.8H148.8z M157.3,112h-14.2V97.8h14.2V112z M233.9,63.8V49.6h-14.2v70.9h70.9V63.8H233.9z M242.4,112h-14.2V97.8h14.2V112z
	 M63.8,148.8v-14.2H49.6v70.9h70.9v-56.7H63.8z M72.3,197H58.1v-14.2h14.2V197z M148.8,148.8v-14.2h-14.2v70.9h70.9v-56.7H148.8z
	 M157.3,197h-14.2v-14.2h14.2V197z M233.9,148.8v-14.2h-14.2v70.9h70.9v-56.7H233.9z M242.4,197h-14.2v-14.2h14.2V197z M63.8,233.9
	v-14.2H49.6v70.9h70.9v-56.7H63.8z M72.3,282H58.1v-14.2h14.2V282z M148.8,233.9v-14.2h-14.2v70.9h70.9v-56.7H148.8z M157.3,282
	h-14.2v-14.2h14.2V282z M233.9,233.9v-14.2h-14.2v70.9h70.9v-56.7H233.9z M242.4,282h-14.2v-14.2h14.2V282z"/>
</svg>
