<?xml version="1.0" encoding="utf-8"?>
<!-- Generator: Adobe Illustrator 19.2.0, SVG Export Plug-In . SVG Version: 6.00 Build 0)  -->
<!DOCTYPE svg PUBLIC "-//W3C//DTD SVG 1.1//EN" "http://www.w3.org/Graphics/SVG/1.1/DTD/svg11.dtd">
<svg version="1.1" id="レイヤー_4" xmlns="http://www.w3.org/2000/svg" xmlns:xlink="http://www.w3.org/1999/xlink" x="0px"
	 y="0px" viewBox="0 0 340.2 340.2" enable-background="new 0 0 340.2 340.2" xml:space="preserve">
<path fill="#34CDD7" d="M240.9,155.9h-14.2v-28.3c0-31.2-25.5-56.7-56.7-56.7h0c-31.2,0-56.7,25.5-56.7,56.7v28.3H99.2
	c-7.8,0-14.2,6.3-14.2,14.2v85c0,7.8,6.3,14.2,14.2,14.2h70.9h0h70.9c7.8,0,14.2-6.3,14.2-14.2v-85
	C255.1,162.3,248.8,155.9,240.9,155.9z M141.7,127.6c0-7.5,3-14.6,8.4-20s12.5-8.4,20-8.4s14.6,3,20,8.4c5.4,5.4,8.4,12.5,8.4,20
	v28.3h-56.7V127.6z"/>
</svg>
