<?xml version="1.0" encoding="utf-8"?>
<!-- Generator: Adobe Illustrator 19.2.0, SVG Export Plug-In . SVG Version: 6.00 Build 0)  -->
<!DOCTYPE svg PUBLIC "-//W3C//DTD SVG 1.1//EN" "http://www.w3.org/Graphics/SVG/1.1/DTD/svg11.dtd">
<svg version="1.1" id="レイヤー_4" xmlns="http://www.w3.org/2000/svg" xmlns:xlink="http://www.w3.org/1999/xlink" x="0px"
	 y="0px" viewBox="0 0 340.2 340.2" enable-background="new 0 0 340.2 340.2" xml:space="preserve">
<path fill="#34CDD7" d="M258.7,131.1c-5.7,0-10.9,2.3-14.7,5.9l-14.1-3.5c-2-11.9-11.4-21.3-23.3-23.3l-3.5-14.1
	c3.6-3.8,5.9-9,5.9-14.7c0-11.7-9.5-21.3-21.3-21.3c-11.7,0-21.3,9.5-21.3,21.3c0,9.4,6.1,17.4,14.6,20.2l3.5,14.1
	c-6.7,5.2-11,13.3-11,22.4c0,3.7,0.7,7.1,2,10.4L161,163.1c-4.7-2.4-10.1-3.7-15.7-3.7c-0.7,0-1.3,0-1.9,0.1l-6.2-15.6
	c5.1-5.1,8.2-12.1,8.2-19.9c0-15.7-12.7-28.3-28.3-28.3c-15.7,0-28.3,12.7-28.3,28.3c0,15.4,12.2,27.9,27.5,28.3l6.2,15.6
	c-7.6,6.5-12.4,16.2-12.4,26.9c0,5.6,1.3,11,3.7,15.7l-14.6,14.6c-3.2-1.3-6.7-2-10.4-2c-15.7,0-28.3,12.7-28.3,28.3
	s12.7,28.3,28.3,28.3s28.3-12.7,28.3-28.3c0-3.7-0.7-7.1-2-10.4l14.6-14.6c4.7,2.4,10.1,3.7,15.7,3.7c10.8,0,20.5-4.8,26.9-12.4
	l15.6,6.2c0.5,15.2,13,27.5,28.3,27.5c15.7,0,28.3-12.7,28.3-28.3s-12.7-28.3-28.3-28.3c-7.8,0-14.8,3.1-19.9,8.2l-15.6-6.2
	c0-0.6,0.1-1.3,0.1-1.9c0-5.6-1.3-11-3.7-15.7l14.6-14.6c3.2,1.3,6.7,2,10.4,2c9.1,0,17.3-4.3,22.4-11l14.1,3.5
	c2.8,8.5,10.8,14.6,20.2,14.6c11.7,0,21.3-9.5,21.3-21.3S270.4,131.1,258.7,131.1z"/>
</svg>
