<?xml version="1.0" encoding="utf-8"?>
<!-- Generator: Adobe Illustrator 19.2.0, SVG Export Plug-In . SVG Version: 6.00 Build 0)  -->
<!DOCTYPE svg PUBLIC "-//W3C//DTD SVG 1.1//EN" "http://www.w3.org/Graphics/SVG/1.1/DTD/svg11.dtd">
<svg version="1.1" id="レイヤー_4" xmlns="http://www.w3.org/2000/svg" xmlns:xlink="http://www.w3.org/1999/xlink" x="0px"
	 y="0px" viewBox="0 0 340.2 340.2" enable-background="new 0 0 340.2 340.2" xml:space="preserve">
<g>
	<circle fill="#34CDD7" cx="99.2" cy="212.6" r="7.1"/>
	<circle fill="#34CDD7" cx="170" cy="113.4" r="7.1"/>
	<circle fill="#34CDD7" cx="99.2" cy="113.4" r="7.1"/>
	<path fill="#34CDD7" d="M283.5,141.7V99.2h-28.3V85c0-7.8-6.3-14.2-14.2-14.2h-65l-0.2,28.1c5.7,2.3,9.8,7.9,9.8,14.5
		c0,8.6-7,15.6-15.6,15.6s-15.6-7-15.6-15.6c0-6.6,4.2-12.3,10-14.5l0.2-28h-59.7v28c5.8,2.3,9.9,7.9,9.9,14.5
		c0,8.6-7,15.6-15.6,15.6s-15.6-7-15.6-15.6c0-6.6,4.1-12.2,9.9-14.5v-28H70.9c-7.8,0-14.2,6.3-14.2,14.2v79.4h40.2l16.4-16.4
		c-0.8-1.9-1.3-4-1.3-6.3c0-8.6,7-15.6,15.6-15.6s15.6,7,15.6,15.6s-7,15.6-15.6,15.6c-2.2,0-4.3-0.5-6.2-1.3l-19.7,19.7H56.7v31.2
		h28c2.3-5.8,7.9-9.9,14.5-9.9c8.6,0,15.6,7,15.6,15.6c0,2.2-0.5,4.3-1.3,6.3l19.7,19.7v30.7h31.1v-54.4L149,198.7
		c-1.8,0.7-3.8,1.2-5.9,1.2c-8.6,0-15.6-7-15.6-15.6s7-15.6,15.6-15.6c2.1,0,4.2,0.4,6,1.2l32.7-33.8h16.2c2.3-5.8,7.9-9.9,14.5-9.9
		c8.6,0,15.6,7,15.6,15.6s-7,15.6-15.6,15.6c-6.6,0-12.2-4.1-14.5-9.9h-11.4l-29.4,30.4c0.9,2,1.4,4.2,1.4,6.5
		c0,2.4-0.5,4.6-1.5,6.6l18.5,19.5v59h31.3v-68.5l-2.3-2.3c-1.9,0.8-4,1.3-6.3,1.3c-8.6,0-15.6-7-15.6-15.6s7-15.6,15.6-15.6
		s15.6,7,15.6,15.6c0,2.2-0.5,4.3-1.3,6.3l5.6,5.6v73.2h22.7c7.8,0,14.2-6.3,14.2-14.2v-14.2h28.3v-28.3h-28.3v-14.2h28.3v-42.5
		h-28.3v-14.2H283.5z"/>
	<path fill="#34CDD7" d="M121.9,243.3l-16.4-16.4c-1.9,0.8-4,1.3-6.3,1.3c-6.6,0-12.2-4.1-14.5-9.9h-28v36.9
		c0,7.8,6.3,14.2,14.2,14.2h51V243.3z"/>
	<circle fill="#34CDD7" cx="198.4" cy="184.3" r="7.1"/>
	<circle fill="#34CDD7" cx="127.6" cy="141.7" r="7.1"/>
	<circle fill="#34CDD7" cx="143.1" cy="184.3" r="7.1"/>
	<circle fill="#34CDD7" cx="212.6" cy="141.7" r="7.1"/>
</g>
</svg>
