<?xml version="1.0" encoding="utf-8"?>
<!-- Generator: Adobe Illustrator 19.2.0, SVG Export Plug-In . SVG Version: 6.00 Build 0)  -->
<!DOCTYPE svg PUBLIC "-//W3C//DTD SVG 1.1//EN" "http://www.w3.org/Graphics/SVG/1.1/DTD/svg11.dtd">
<svg version="1.1" id="レイヤー_4" xmlns="http://www.w3.org/2000/svg" xmlns:xlink="http://www.w3.org/1999/xlink" x="0px"
	 y="0px" viewBox="0 0 340.2 340.2" enable-background="new 0 0 340.2 340.2" xml:space="preserve">
<path fill="#34CDD7" d="M56.7,86.5V129h226.8V86.5H56.7z M92.1,114.8H78v-14.2h14.2V114.8z M114.8,114.8h-14.2v-14.2h14.2V114.8z
	 M137.5,114.8h-14.2v-14.2h14.2V114.8z M262.2,114.8H248v-14.2h14.2V114.8z M56.7,143.1v42.5h226.8v-42.5H56.7z M92.1,171.5H78
	v-14.2h14.2V171.5z M114.8,171.5h-14.2v-14.2h14.2V171.5z M137.5,171.5h-14.2v-14.2h14.2V171.5z M262.2,171.5H248v-14.2h14.2V171.5z
	 M283.5,231v22.7H56.7V231h102v-31.2h22.7V231H283.5z"/>
</svg>
