<?xml version="1.0" encoding="utf-8"?>
<!-- Generator: Adobe Illustrator 19.2.0, SVG Export Plug-In . SVG Version: 6.00 Build 0)  -->
<!DOCTYPE svg PUBLIC "-//W3C//DTD SVG 1.1//EN" "http://www.w3.org/Graphics/SVG/1.1/DTD/svg11.dtd">
<svg version="1.1" id="レイヤー_4" xmlns="http://www.w3.org/2000/svg" xmlns:xlink="http://www.w3.org/1999/xlink" x="0px"
	 y="0px" viewBox="0 0 340.2 340.2" enable-background="new 0 0 340.2 340.2" xml:space="preserve">
<path fill="#34CDD7" d="M226.5,172.6c9.9-12.4,15.8-28,15.8-45.1c0-39.9-32.4-72.3-72.3-72.3c-39.9,0-72.3,32.4-72.3,72.3
	c0,17,5.9,32.7,15.8,45.1c-30.7,21.5-51.3,60-51.3,103.8v8.5h215.4v-8.5C277.8,232.6,257.3,194.1,226.5,172.6z M170.1,72.3
	c30.5,0,55.3,24.8,55.3,55.3s-24.8,55.3-55.3,55.3s-55.3-24.8-55.3-55.3S139.6,72.3,170.1,72.3z M79.7,267.9
	c2.5-35.7,20.5-66.5,46.3-83.1c12.2,9.4,27.5,15.1,44.1,15.1c16.6,0,31.9-5.6,44.1-15.1c25.8,16.6,43.8,47.4,46.3,83.1H79.7z"/>
</svg>
