<?xml version="1.0" encoding="utf-8"?>
<!-- Generator: Adobe Illustrator 19.2.1, SVG Export Plug-In . SVG Version: 6.00 Build 0)  -->
<!DOCTYPE svg PUBLIC "-//W3C//DTD SVG 1.1//EN" "http://www.w3.org/Graphics/SVG/1.1/DTD/svg11.dtd">
<svg version="1.1" id="レイヤー_40" xmlns="http://www.w3.org/2000/svg" xmlns:xlink="http://www.w3.org/1999/xlink" x="0px"
	 y="0px" viewBox="0 0 340.2 340.2" enable-background="new 0 0 340.2 340.2" xml:space="preserve">
<g>
	<path fill="#34CDD7" d="M104.7,122.3c-11.7,0-21.3-9.5-21.3-21.3s9.5-21.3,21.3-21.3c11.7,0,21.3,9.5,21.3,21.3
		S116.5,122.3,104.7,122.3z M240.3,155.8c-4.1-5.5-14.4,1.7-20.5,4.8l-7.2,3.6l11.8-36l52.9-4.4v-21.4h-59.7
		c-4.7,0-9.2,2.4-11.8,6.3l-23.2,42.4l-23.1-30.8l6.1-6.3c1.5-1.6,2.5-3.5,3-5.7l12-60.5l-22.2-4.4L147,100.7l-52.7,54.5
		c-2.3,2.3-3.4,5.5-3.1,8.8l4,49.7l22.6-1.8l-3.6-44.6l7.5-7.8l36.7,47c4.2,5.2,11.4,6.8,17.4,3.8l55-23.1l36.8,36.7l15.3-11.5
		L240.3,155.8z M246.9,259l-5.3-8.5c-18.9,11.8-41.9,16.5-64.7,13c-22.8-3.5-43.4-14.7-57.9-31.6l-7.6,6.5
		c16.1,18.7,38.9,31.1,64,34.9c5.4,0.8,10.9,1.2,16.3,1.2C211.3,274.6,230.5,269.3,246.9,259z M131.3,128.1 M242.7,281.3l-4.5-8.9
		c-29.7,15-63.7,18.3-95.8,9.1c-32-9.1-59.2-29.8-76.6-58.2l-8.6,5.2c18.7,30.6,47.9,52.8,82.4,62.6c12.8,3.7,25.9,5.5,39,5.5
		C200.7,296.6,222.6,291.5,242.7,281.3z"/>
</g>
</svg>
