<?xml version="1.0" encoding="utf-8"?>
<!-- Generator: Adobe Illustrator 19.2.0, SVG Export Plug-In . SVG Version: 6.00 Build 0)  -->
<!DOCTYPE svg PUBLIC "-//W3C//DTD SVG 1.1//EN" "http://www.w3.org/Graphics/SVG/1.1/DTD/svg11.dtd">
<svg version="1.1" id="レイヤー_4" xmlns="http://www.w3.org/2000/svg" xmlns:xlink="http://www.w3.org/1999/xlink" x="0px"
	 y="0px" viewBox="0 0 340.2 340.2" enable-background="new 0 0 340.2 340.2" xml:space="preserve">
<g>
	<path fill="#34CDD7" d="M97.5,151c19.3,7.7,45,11.9,72.5,11.9s53.3-4.2,72.5-11.9c7.5-3,13.7-6.4,18.2-10V99.2
		c0-22.3-45.6-34-90.7-34c-45.1,0-90.7,11.7-90.7,34V141C83.9,144.6,90,148,97.5,151z"/>
	<path fill="#34CDD7" d="M170.1,205.5c27.5,0,53.3-4.2,72.5-11.9c7.5-3,13.7-6.4,18.2-10V158c-3.8,2.2-8.2,4.3-12.9,6.2
		c-20.9,8.4-48.5,13-77.8,13s-56.9-4.6-77.8-13c-4.8-1.9-9.1-4-12.9-6.2v25.5c4.5,3.6,10.7,7,18.2,10
		C116.8,201.3,142.6,205.5,170.1,205.5z"/>
	<path fill="#34CDD7" d="M247.9,206.7c-20.9,8.4-48.5,13-77.8,13s-56.9-4.6-77.8-13c-4.8-1.9-9.1-4-12.9-6.2v40.4
		c0,22.3,45.6,34,90.7,34c45.1,0,90.7-11.7,90.7-34v-40.4C256.9,202.8,252.6,204.8,247.9,206.7z"/>
</g>
</svg>
