<?xml version="1.0" encoding="utf-8"?>
<!-- Generator: Adobe Illustrator 19.2.0, SVG Export Plug-In . SVG Version: 6.00 Build 0)  -->
<!DOCTYPE svg PUBLIC "-//W3C//DTD SVG 1.1//EN" "http://www.w3.org/Graphics/SVG/1.1/DTD/svg11.dtd">
<svg version="1.1" id="レイヤー_4" xmlns="http://www.w3.org/2000/svg" xmlns:xlink="http://www.w3.org/1999/xlink" x="0px"
	 y="0px" viewBox="0 0 340.2 340.2" enable-background="new 0 0 340.2 340.2" xml:space="preserve">
<path fill="#34CDD7" d="M212.6,70.9h-85c-7.8,0-14.2,6.4-14.2,14.2v170.1c0,7.8,6.4,14.2,14.2,14.2h85c7.8,0,14.2-6.4,14.2-14.2V85
	C226.8,77.2,220.4,70.9,212.6,70.9z M150.2,246.6h-22.7v-11.3h22.7V246.6z M150.2,223.9h-22.7v-11.3h22.7V223.9z M150.2,201.3h-22.7
	v-11.3h22.7V201.3z M181.4,246.6h-22.7v-11.3h22.7V246.6z M181.4,223.9h-22.7v-11.3h22.7V223.9z M181.4,201.3h-22.7v-11.3h22.7
	V201.3z M212.6,246.6h-22.7v-11.3h22.7V246.6z M212.6,223.9h-22.7v-11.3h22.7V223.9z M212.6,201.3h-22.7v-11.3h22.7V201.3z
	 M212.6,170.1h-85V85h85V170.1z"/>
</svg>
