<?xml version="1.0" encoding="utf-8"?>
<!-- Generator: Adobe Illustrator 19.2.0, SVG Export Plug-In . SVG Version: 6.00 Build 0)  -->
<!DOCTYPE svg PUBLIC "-//W3C//DTD SVG 1.1//EN" "http://www.w3.org/Graphics/SVG/1.1/DTD/svg11.dtd">
<svg version="1.1" id="レイヤー_4" xmlns="http://www.w3.org/2000/svg" xmlns:xlink="http://www.w3.org/1999/xlink" x="0px"
	 y="0px" viewBox="0 0 340.2 340.2" enable-background="new 0 0 340.2 340.2" xml:space="preserve">
<path fill="#34CDD7" d="M170.2,96.4c-6.3,0-11.3-5.1-11.3-11.3V56.7c0-6.3,5.1-11.3,11.3-11.3s11.3,5.1,11.3,11.3V85
	C181.5,91.3,176.4,96.4,170.2,96.4z M118,117.9c4.4-4.4,4.4-11.6,0-16l-20-20c-4.4-4.4-11.6-4.4-16,0c-4.4,4.4-4.4,11.6,0,16l20,20
	c2.2,2.2,5.1,3.3,8,3.3S115.8,120.1,118,117.9z M96.4,170c0-6.3-5.1-11.3-11.3-11.3H56.7c-6.3,0-11.3,5.1-11.3,11.3
	s5.1,11.3,11.3,11.3H85C91.3,181.3,96.4,176.3,96.4,170z M97.9,258.2l20-20c4.4-4.4,4.4-11.6,0-16c-4.4-4.4-11.6-4.4-16,0l-20,20
	c-4.4,4.4-4.4,11.6,0,16c2.2,2.2,5.1,3.3,8,3.3S95.7,260.4,97.9,258.2z M181.3,283.5v-28.3c0-6.3-5.1-11.3-11.3-11.3
	s-11.3,5.1-11.3,11.3v28.3c0,6.3,5.1,11.3,11.3,11.3S181.3,289.7,181.3,283.5z M258.2,258.3c4.4-4.4,4.4-11.6,0-16l-20-20
	c-4.4-4.4-11.6-4.4-16,0c-4.4,4.4-4.4,11.6,0,16l20,20c2.2,2.2,5.1,3.3,8,3.3S256,260.5,258.2,258.3z M294.8,170.2
	c0-6.3-5.1-11.3-11.3-11.3h-28.3c-6.3,0-11.3,5.1-11.3,11.3s5.1,11.3,11.3,11.3h28.3C289.7,181.5,294.8,176.4,294.8,170.2z
	 M213.2,213.2L213.2,213.2c11.5-11.5,17.9-26.8,17.9-43.1c0-16.3-6.3-31.6-17.9-43.1s-26.8-17.9-43.1-17.9s-31.6,6.3-43.1,17.9
	s-17.9,26.8-17.9,43.1c0,16.3,6.3,31.6,17.9,43.1c11.5,11.5,26.8,17.9,43.1,17.9S201.7,224.7,213.2,213.2z M197.1,143
	c7.2,7.2,11.2,16.8,11.2,27.1c0,10.2-4,19.8-11.2,27.1l0,0c-7.2,7.2-16.8,11.2-27.1,11.2s-19.8-4-27.1-11.2
	c-7.2-7.2-11.2-16.8-11.2-27.1c0-10.2,4-19.8,11.2-27.1c7.2-7.2,16.8-11.2,27.1-11.2S189.9,135.8,197.1,143z M238.3,118l20-20
	c4.4-4.4,4.4-11.6,0-16c-4.4-4.4-11.6-4.4-16,0l-20,20c-4.4,4.4-4.4,11.6,0,16c2.2,2.2,5.1,3.3,8,3.3S236.1,120.2,238.3,118z"/>
</svg>
