<?xml version="1.0" encoding="utf-8"?>
<!-- Generator: Adobe Illustrator 19.2.0, SVG Export Plug-In . SVG Version: 6.00 Build 0)  -->
<!DOCTYPE svg PUBLIC "-//W3C//DTD SVG 1.1//EN" "http://www.w3.org/Graphics/SVG/1.1/DTD/svg11.dtd">
<svg version="1.1" id="レイヤー_4" xmlns="http://www.w3.org/2000/svg" xmlns:xlink="http://www.w3.org/1999/xlink" x="0px"
	 y="0px" viewBox="0 0 340.2 340.2" enable-background="new 0 0 340.2 340.2" xml:space="preserve">
<path fill="#34CDD7" d="M255.1,42.5H85c-7.8,0-14.2,6.3-14.2,14.2v226.8c0,7.8,6.3,14.2,14.2,14.2h170.1c7.8,0,14.2-6.3,14.2-14.2
	V56.7C269.3,48.9,262.9,42.5,255.1,42.5z M170.1,292c-3.1,0-5.7-2.5-5.7-5.7c0-3.1,2.5-5.7,5.7-5.7c3.1,0,5.7,2.5,5.7,5.7
	C175.7,289.4,173.2,292,170.1,292z M255.1,275H85V65.2h170.1V275z"/>
</svg>
