<?xml version="1.0" encoding="utf-8"?>
<!-- Generator: Adobe Illustrator 19.2.0, SVG Export Plug-In . SVG Version: 6.00 Build 0)  -->
<!DOCTYPE svg PUBLIC "-//W3C//DTD SVG 1.1//EN" "http://www.w3.org/Graphics/SVG/1.1/DTD/svg11.dtd">
<svg version="1.1" id="レイヤー_4" xmlns="http://www.w3.org/2000/svg" xmlns:xlink="http://www.w3.org/1999/xlink" x="0px"
	 y="0px" viewBox="0 0 340.2 340.2" enable-background="new 0 0 340.2 340.2" xml:space="preserve">
<path fill="#34CDD7" d="M212.6,181.4c0,23.4-19.1,42.5-42.5,42.5s-42.5-19.1-42.5-42.5c0-23.4,19.1-42.5,42.5-42.5
	S212.6,158,212.6,181.4z M283.5,110.6v141.7c0,7.8-6.3,14.2-14.2,14.2H70.9c-7.8,0-14.2-6.3-14.2-14.2V110.6
	c0-7.8,6.3-14.2,14.2-14.2H85V73.7h56.7v22.7h127.6C277.1,96.4,283.5,102.7,283.5,110.6z M226.8,181.4c0-31.3-25.4-56.7-56.7-56.7
	s-56.7,25.4-56.7,56.7c0,31.3,25.4,56.7,56.7,56.7S226.8,212.7,226.8,181.4z M269.3,110.6h-14.2v14.2h14.2V110.6z"/>
</svg>
