<?xml version="1.0" encoding="utf-8"?>
<!-- Generator: Adobe Illustrator 19.2.0, SVG Export Plug-In . SVG Version: 6.00 Build 0)  -->
<!DOCTYPE svg PUBLIC "-//W3C//DTD SVG 1.1//EN" "http://www.w3.org/Graphics/SVG/1.1/DTD/svg11.dtd">
<svg version="1.1" id="レイヤー_4" xmlns="http://www.w3.org/2000/svg" xmlns:xlink="http://www.w3.org/1999/xlink" x="0px"
	 y="0px" viewBox="0 0 340.2 340.2" enable-background="new 0 0 340.2 340.2" xml:space="preserve">
<path fill="#34CDD7" d="M67,126.9C50.4,110.4,50.4,83.5,67,67c8-8,18.6-12.4,30-12.4s22,4.4,30,12.4c10.8,10.8,14.9,26.6,10.8,41.3
	c-4.4-3.4-8.8-7-12.9-10.6c0.2-7.6-2.7-15-8.1-20.4c-5.3-5.3-12.3-8.2-19.7-8.2s-14.5,2.9-19.7,8.2c-10.9,10.9-10.9,28.6,0,39.4
	c5.3,5.3,12.3,8.2,19.7,8.2c0.2,0,0.5,0,0.7,0c3.6,4.2,7.3,8.6,10.6,12.9c-3.7,1-7.5,1.6-11.3,1.6C85.6,139.3,75,134.9,67,126.9z
	 M215.4,97.6c-0.2-7.6,2.7-15,8.1-20.4c5.3-5.3,12.3-8.2,19.7-8.2c7.4,0,14.5,2.9,19.7,8.2c10.9,10.9,10.9,28.6,0,39.4
	c-5.3,5.3-12.3,8.2-19.7,8.2c-0.2,0-0.5,0-0.7,0c-3.7,4.2-7.3,8.6-10.6,12.9c3.7,1,7.5,1.6,11.4,1.6c11.3,0,22-4.4,30-12.4
	c16.5-16.5,16.5-43.4,0-59.9c-8-8-18.6-12.4-30-12.4c-11.3,0-22,4.4-30,12.4c-10.8,10.8-14.9,26.6-10.8,41.3
	C206.8,104.9,211.2,101.3,215.4,97.6z M124.8,242.5c0.2,7.6-2.7,15-8.1,20.4c-5.3,5.3-12.3,8.2-19.7,8.2c-7.5,0-14.5-2.9-19.7-8.2
	c-10.9-10.9-10.9-28.6,0-39.4c5.3-5.3,12.3-8.2,19.7-8.2c0.2,0,0.5,0,0.7,0c3.7-4.2,7.3-8.6,10.6-12.9c-3.7-1-7.5-1.6-11.4-1.6
	c-11.3,0-22,4.4-30,12.4c-16.5,16.5-16.5,43.4,0,59.9c8,8,18.6,12.4,30,12.4s22-4.4,30-12.4c10.8-10.8,14.9-26.6,10.8-41.3
	C133.3,235.3,129,238.9,124.8,242.5z M273.2,213.3c-8-8-18.6-12.4-30-12.4c-3.8,0-7.6,0.5-11.3,1.6c3.4,4.4,7,8.8,10.6,12.9
	c0.2,0,0.5,0,0.7,0c7.5,0,14.5,2.9,19.7,8.2c10.9,10.9,10.9,28.6,0,39.4c-5.3,5.3-12.3,8.2-19.7,8.2s-14.5-2.9-19.7-8.2
	c-5.4-5.4-8.3-12.8-8.1-20.4c-4.2-3.6-8.6-7.3-12.9-10.6c-4.1,14.7,0,30.5,10.8,41.3c8,8,18.6,12.4,30,12.4c11.3,0,22-4.4,30-12.4
	s12.4-18.6,12.4-30S281.2,221.3,273.2,213.3z M170.1,206.2c-22.7,0-66,44.1-66,44.1c-1.8,1.8-4.3,2.9-7.1,2.9
	c-5.6,0-10.1-4.5-10.1-10.1c0-2.8,1.1-5.3,2.9-7.1c0,0,44.1-43.3,44.1-66c0-22.7-44.1-66-44.1-66c-1.8-1.8-2.9-4.3-2.9-7.1
	c0-5.6,4.5-10.1,10.1-10.1c2.8,0,5.3,1.1,7.1,2.9c0,0,43.3,44.1,66,44.1s66-44.1,66-44.1c1.8-1.8,4.3-2.9,7.1-2.9
	c5.6,0,10.1,4.5,10.1,10.1c0,2.8-1.1,5.3-2.9,7.1c0,0-44.1,43.3-44.1,66c0,22.7,44.1,66,44.1,66c1.8,1.8,2.9,4.3,2.9,7.1
	c0,5.6-4.5,10.1-10.1,10.1c-2.8,0-5.3-1.1-7.1-2.9C236.1,250.3,192.8,206.2,170.1,206.2z M192.8,170.1c0-12.5-10.2-22.7-22.7-22.7
	c-12.5,0-22.7,10.2-22.7,22.7c0,12.5,10.2,22.7,22.7,22.7C182.6,192.8,192.8,182.6,192.8,170.1z"/>
</svg>
