<?xml version="1.0" encoding="utf-8"?>
<!-- Generator: Adobe Illustrator 19.2.0, SVG Export Plug-In . SVG Version: 6.00 Build 0)  -->
<!DOCTYPE svg PUBLIC "-//W3C//DTD SVG 1.1//EN" "http://www.w3.org/Graphics/SVG/1.1/DTD/svg11.dtd">
<svg version="1.1" id="レイヤー_4" xmlns="http://www.w3.org/2000/svg" xmlns:xlink="http://www.w3.org/1999/xlink" x="0px"
	 y="0px" viewBox="0 0 340.2 340.2" enable-background="new 0 0 340.2 340.2" xml:space="preserve">
<path fill="#34CDD7" d="M219.7,70.9h-99.2c-7.8,0-14.2,6.3-14.2,14.2v170.1c0,7.8,6.3,14.2,14.2,14.2h99.2c7.8,0,14.2-6.3,14.2-14.2
	V85C233.9,77.2,227.5,70.9,219.7,70.9z M163,79.4h14.2c1.6,0,2.8,1.3,2.8,2.8s-1.3,2.8-2.8,2.8H163c-1.6,0-2.8-1.3-2.8-2.8
	S161.4,79.4,163,79.4z M170.1,263.6c-3.1,0-5.7-2.5-5.7-5.7s2.5-5.7,5.7-5.7c3.1,0,5.7,2.5,5.7,5.7S173.2,263.6,170.1,263.6z
	 M219.7,246.6h-99.2V93.5h99.2V246.6z"/>
</svg>
