<?xml version="1.0" encoding="utf-8"?>
<!-- Generator: Adobe Illustrator 18.1.1, SVG Export Plug-In . SVG Version: 6.00 Build 0)  -->
<!DOCTYPE svg PUBLIC "-//W3C//DTD SVG 1.1//EN" "http://www.w3.org/Graphics/SVG/1.1/DTD/svg11.dtd">
<svg version="1.1" id="レイヤー_37" xmlns="http://www.w3.org/2000/svg" xmlns:xlink="http://www.w3.org/1999/xlink" x="0px"
	 y="0px" viewBox="0 0 340.2 340.2" enable-background="new 0 0 340.2 340.2" xml:space="preserve">
<g>
	<path fill="#34CDD7" d="M191.4,248.4c0,3.5-2.2,5.2-6.6,5.2h-4.1v-9.9h4.1C189.5,243.7,191.4,245.1,191.4,248.4z M212.5,266
		c0,1.6,1,2.4,3,2.4c1.6,0,3-0.7,4.7-2.3v-4.5C213.3,262.6,212.5,264.6,212.5,266z M290.6,226.8v56.7c0,7.8-6.3,14.2-14.2,14.2H63.8
		c-7.8,0-14.2-6.3-14.2-14.2v-56.7c0-7.8,6.3-14.2,14.2-14.2h212.6C284.2,212.6,290.6,218.9,290.6,226.8z M134.7,267.3h-15v-30.8
		h-8.8v38.4h23.8V267.3z M166,260.2c0-10.1-7.1-15.5-14.2-15.5s-14.2,5.3-14.2,15.5c0,10.1,7.1,15.4,14.2,15.4S166,270.3,166,260.2z
		 M202.2,274.9l-8.9-15.5c4.4-2,6.7-5.8,6.7-11c0-7.8-5.1-11.9-14.6-11.9h-13.6v38.4h8.8v-14h4l7.6,14H202.2z M229,257.8
		c0-8.5-4-13.1-11.5-13.1c-3.9,0-8,1.3-12.1,3.8l-0.6,0.4l3.3,6.1l0.6-0.4c2.3-1.3,4.8-2.6,7.3-2.6c2.4,0,3.7,1.1,4,3.5
		c-11.1,1.3-16.1,4.7-16.1,11c0,5.3,3.7,9,9,9c2.7,0,5.4-1,8.1-3.2l0.5,2.5h7.3V257.8z M151.8,252.2c-3.3,0-5.2,3-5.2,8
		c0,5,2,7.9,5.2,7.9s5.2-3,5.2-7.9C157.1,255.2,155.1,252.2,151.8,252.2z M120.5,57.1v56.7H49.6V43h14.2v14.2H120.5z M72.3,91.1
		H58.1v14.2h14.2V91.1z M205.5,57.1v56.7h-70.9V43h14.2v14.2H205.5z M157.3,91.1h-14.2v14.2h14.2V91.1z M290.6,56.7v56.7h-70.9V42.5
		h14.2v14.2H290.6z M242.4,90.7h-14.2v14.2h14.2V90.7z M120.5,142.2v56.7H49.6V128h14.2v14.2H120.5z M72.3,176.2H58.1v14.2h14.2
		V176.2z M205.5,142.2v56.7h-70.9V128h14.2v14.2H205.5z M157.3,176.2h-14.2v14.2h14.2V176.2z M290.6,141.7v56.7h-70.9v-70.9h14.2
		v14.2H290.6z M242.4,175.7h-14.2v14.2h14.2V175.7z"/>
</g>
</svg>
