<?xml version="1.0" encoding="utf-8"?>
<!-- Generator: Adobe Illustrator 19.2.0, SVG Export Plug-In . SVG Version: 6.00 Build 0)  -->
<!DOCTYPE svg PUBLIC "-//W3C//DTD SVG 1.1//EN" "http://www.w3.org/Graphics/SVG/1.1/DTD/svg11.dtd">
<svg version="1.1" id="レイヤー_4" xmlns="http://www.w3.org/2000/svg" xmlns:xlink="http://www.w3.org/1999/xlink" x="0px"
	 y="0px" viewBox="0 0 340.2 340.2" enable-background="new 0 0 340.2 340.2" xml:space="preserve">
<path fill="#34CDD7" d="M274.4,117.5c0,15.1-5.9,29.4-16.6,40.1l-35.1,35.1c-10.7,10.7-24.9,16.6-40.1,16.6s-29.4-5.9-40.1-16.6
	l20-20c5.4,5.4,12.5,8.3,20,8.3c7.6,0,14.7-2.9,20-8.3l35.1-35.1c5.4-5.4,8.3-12.5,8.3-20s-2.9-14.7-8.3-20
	c-5.4-5.4-12.5-8.3-20-8.3c-7.6,0-14.7,2.9-20,8.3l-15,15l0,0c-5.5,5.5-14.5,5.5-20,0c-5.5-5.5-5.5-14.5,0-20c0,0,0,0,0,0l15-15
	c10.7-10.7,24.9-16.6,40.1-16.6s29.4,5.9,40.1,16.6C268.5,88.1,274.4,102.3,274.4,117.5z M177.6,227.7c-5.5-5.5-14.5-5.5-20,0l0,0
	l0,0l-15,15c-5.4,5.4-12.5,8.3-20,8.3s-14.7-2.9-20-8.3c-11.1-11.1-11.1-29,0-40.1l35.1-35.1c5.4-5.4,12.5-8.3,20-8.3
	c7.6,0,14.7,2.9,20,8.3l20-20c-10.7-10.7-24.9-16.6-40.1-16.6s-29.4,5.9-40.1,16.6l-35.1,35.1c-22.1,22.1-22.1,58.1,0,80.2
	c10.7,10.7,24.9,16.6,40.1,16.6s29.4-5.9,40.1-16.6l15-15l0,0C183.1,242.2,183.1,233.2,177.6,227.7z"/>
</svg>
