<?xml version="1.0" encoding="utf-8"?>
<!-- Generator: Adobe Illustrator 18.1.1, SVG Export Plug-In . SVG Version: 6.00 Build 0)  -->
<!DOCTYPE svg PUBLIC "-//W3C//DTD SVG 1.1//EN" "http://www.w3.org/Graphics/SVG/1.1/DTD/svg11.dtd">
<svg version="1.1" id="レイヤー_37" xmlns="http://www.w3.org/2000/svg" xmlns:xlink="http://www.w3.org/1999/xlink" x="0px"
	 y="0px" viewBox="0 0 340.2 340.2" enable-background="new 0 0 340.2 340.2" xml:space="preserve">
<path fill="#34CDD7" d="M248,56.7h-14.2V163h-21.3v-56.7h-70.9v184.3h70.9V177.2H248V56.7z M184.3,255.1h-14.2v-14.2h14.2V255.1z
	 M184.3,232.4h-14.2v-14.2h14.2V232.4z M63.8,170.1c0-19,5-36.8,13.8-52.2l11.8,7.9C82.1,138.9,78,154,78,170.1
	c0,16.1,4.1,31.2,11.4,44.4l-11.8,7.9C68.8,206.9,63.8,189.1,63.8,170.1z M101.2,206.5c-5.8-10.9-9.1-23.3-9.1-36.5
	s3.3-25.6,9.1-36.5l11.9,7.9c-4.3,8.6-6.8,18.3-6.8,28.6c0,10.3,2.5,20,6.8,28.6l0,0L101.2,206.5z M53.9,238.1
	c-11.7-20-18.5-43.2-18.5-68c0-24.8,6.7-48,18.5-68l11.8,7.9c-10.2,17.7-16.1,38.2-16.1,60.1s5.9,42.4,16.1,60.1L53.9,238.1z"/>
</svg>
