<?xml version="1.0" encoding="utf-8"?>
<!-- Generator: Adobe Illustrator 19.2.0, SVG Export Plug-In . SVG Version: 6.00 Build 0)  -->
<!DOCTYPE svg PUBLIC "-//W3C//DTD SVG 1.1//EN" "http://www.w3.org/Graphics/SVG/1.1/DTD/svg11.dtd">
<svg version="1.1" id="レイヤー_4" xmlns="http://www.w3.org/2000/svg" xmlns:xlink="http://www.w3.org/1999/xlink" x="0px"
	 y="0px" viewBox="0 0 340.2 340.2" enable-background="new 0 0 340.2 340.2" xml:space="preserve">
<path fill="#34CDD7" d="M255.1,177.2c0,46.9-38.1,85-85,85s-85-38.1-85-85c0-37,23.7-68.5,56.7-80.2v31.1
	c-16.9,9.8-28.4,28.1-28.4,49.1c0,31.3,25.4,56.7,56.7,56.7s56.7-25.4,56.7-56.7c0-20.9-11.4-39.2-28.3-49.1V97
	C231.4,108.7,255.1,140.2,255.1,177.2z M184.3,177.2v-85c0-7.8-6.3-14.2-14.2-14.2s-14.2,6.3-14.2,14.2v85c0,7.8,6.3,14.2,14.2,14.2
	S184.3,185,184.3,177.2z"/>
</svg>
