<?xml version="1.0" encoding="utf-8"?>
<!-- Generator: Adobe Illustrator 18.1.1, SVG Export Plug-In . SVG Version: 6.00 Build 0)  -->
<!DOCTYPE svg PUBLIC "-//W3C//DTD SVG 1.1//EN" "http://www.w3.org/Graphics/SVG/1.1/DTD/svg11.dtd">
<svg version="1.1" id="レイヤー_37" xmlns="http://www.w3.org/2000/svg" xmlns:xlink="http://www.w3.org/1999/xlink" x="0px"
	 y="0px" viewBox="0 0 340.2 340.2" enable-background="new 0 0 340.2 340.2" xml:space="preserve">
<path fill="#34CDD7" d="M219.7,163.5c0,7.2-2.2,14.2-6.6,21c-3,4.8-7.4,9.7-13.2,15c-3.9,3.5-8.9,7.7-14.9,12.5
	c-8.3,6.5-13.3,9.8-15,9.8c-1.2,0-4.9-2.3-11.2-7C143,203,132.5,192.9,127,184.5c-4.4-6.8-6.6-13.8-6.6-21c0-8.6,2.5-16,7.6-22
	c5.1-6,11.5-9,19.2-9c2.4,0,4.6,0.3,6.6,1c7.5,2.6,12.9,6.5,16.2,11.6c2.3-3.5,5.6-6.5,10.1-8.9c4.5-2.5,8.7-3.7,12.8-3.7
	c6.4,0,12,2.3,17,6.8C216.4,145.2,219.7,153.3,219.7,163.5z M273.5,170.1c0-57.1-46.4-103.5-103.5-103.5S66.6,113,66.6,170.1
	S113,273.5,170.1,273.5S273.5,227.1,273.5,170.1z M250.9,170.1c0,44.5-36.2,80.8-80.8,80.8s-80.8-36.2-80.8-80.8
	s36.2-80.8,80.8-80.8S250.9,125.5,250.9,170.1z"/>
</svg>
