<?xml version="1.0" encoding="utf-8"?>
<!-- Generator: Adobe Illustrator 19.2.0, SVG Export Plug-In . SVG Version: 6.00 Build 0)  -->
<!DOCTYPE svg PUBLIC "-//W3C//DTD SVG 1.1//EN" "http://www.w3.org/Graphics/SVG/1.1/DTD/svg11.dtd">
<svg version="1.1" id="レイヤー_4" xmlns="http://www.w3.org/2000/svg" xmlns:xlink="http://www.w3.org/1999/xlink" x="0px"
	 y="0px" viewBox="0 0 340.2 340.2" enable-background="new 0 0 340.2 340.2" xml:space="preserve">
<path fill="#34CDD7" d="M42.5,113.4v170.1h56.7V113.4H42.5z M85,255.1H56.7v-28.3H85V255.1z M85,212.6H56.7v-28.3H85V212.6z
	 M85,170.1H56.7v-28.3H85V170.1z M113.4,56.7v226.8h70.9v-42.5h42.5v42.5h70.9V56.7H113.4z M155.9,226.8h-28.3v-28.3h28.3V226.8z
	 M155.9,184.3h-28.3v-28.3h28.3V184.3z M155.9,141.7h-28.3v-28.3h28.3V141.7z M155.9,99.2h-28.3V70.9h28.3V99.2z M198.4,226.8h-28.3
	v-28.3h28.3V226.8z M198.4,184.3h-28.3v-28.3h28.3V184.3z M198.4,141.7h-28.3v-28.3h28.3V141.7z M198.4,99.2h-28.3V70.9h28.3V99.2z
	 M240.9,226.8h-28.3v-28.3h28.3V226.8z M240.9,184.3h-28.3v-28.3h28.3V184.3z M240.9,141.7h-28.3v-28.3h28.3V141.7z M240.9,99.2
	h-28.3V70.9h28.3V99.2z M283.5,226.8h-28.3v-28.3h28.3V226.8z M283.5,184.3h-28.3v-28.3h28.3V184.3z M283.5,141.7h-28.3v-28.3h28.3
	V141.7z M283.5,99.2h-28.3V70.9h28.3V99.2z"/>
</svg>
