<?xml version="1.0" encoding="utf-8"?>
<!-- Generator: Adobe Illustrator 19.2.0, SVG Export Plug-In . SVG Version: 6.00 Build 0)  -->
<!DOCTYPE svg PUBLIC "-//W3C//DTD SVG 1.1//EN" "http://www.w3.org/Graphics/SVG/1.1/DTD/svg11.dtd">
<svg version="1.1" id="レイヤー_4" xmlns="http://www.w3.org/2000/svg" xmlns:xlink="http://www.w3.org/1999/xlink" x="0px"
	 y="0px" viewBox="0 0 340.2 340.2" enable-background="new 0 0 340.2 340.2" xml:space="preserve">
<path fill="#34CDD7" d="M240.9,35.4H99.2C87.5,35.4,78,45,78,56.7v170.1c0,11.7,9.5,21.3,21.3,21.3h14.2v56.7h113.4V248h14.2
	c11.7,0,21.3-9.5,21.3-21.3V56.7C262.2,45,252.7,35.4,240.9,35.4z M212.6,290.6h-85V248h85V290.6z M248,226.8c0,3.9-3.2,7.1-7.1,7.1
	H99.2c-3.9,0-7.1-3.2-7.1-7.1V56.7c0-3.9,3.2-7.1,7.1-7.1h141.7c3.9,0,7.1,3.2,7.1,7.1V226.8z M163,283.5h-14.2v-14.2H163V283.5z
	 M191.3,283.5h-14.2v-14.2h14.2V283.5z"/>
</svg>
