<?xml version="1.0" encoding="utf-8"?>
<!-- Generator: Adobe Illustrator 18.1.1, SVG Export Plug-In . SVG Version: 6.00 Build 0)  -->
<!DOCTYPE svg PUBLIC "-//W3C//DTD SVG 1.1//EN" "http://www.w3.org/Graphics/SVG/1.1/DTD/svg11.dtd">
<svg version="1.1" id="レイヤー_37" xmlns="http://www.w3.org/2000/svg" xmlns:xlink="http://www.w3.org/1999/xlink" x="0px"
	 y="0px" viewBox="0 0 340.2 340.2" enable-background="new 0 0 340.2 340.2" xml:space="preserve">
<path fill="#34CDD7" d="M283.5,177.2h-26.6C268.6,168.8,276,155,276,140c0-18.3-11.1-34.8-27.6-41.9c0-0.7,0-1.4,0-2.2
	c0-31.3-25.4-56.7-56.7-56.7c-18.8,0-36.2,9.2-46.7,24.5c-4.4-1.6-9.2-2.5-14-2.5c-21,0-38.3,16.2-40,36.8
	c-15.1,6.5-26,20.9-27.7,37.3l0,0.4V223c0,15.3,12.5,27.8,27.8,27.8c0.3,0,0.6,0,0.9,0v32.7c0,3.9,3.2,7.1,7.1,7.1h141.7
	c3.9,0,7.1-3.2,7.1-7.1V248h35.4c3.9,0,7.1-3.2,7.1-7.1v-56.7C290.6,180.3,287.4,177.2,283.5,177.2z M233.9,177.2h-85.2v-25.5h85.2
	V177.2z M77.6,223v-86.6c1.4-12.4,10.4-23.1,22.5-26.6l5.3-1.6l-0.3-5.6c0-0.4,0-0.9,0-1.3c0-14.3,11.7-26,26-26
	c4.6,0,9.2,1.2,13.1,3.6l6.4,3.8l3.5-6.6c7.4-14,21.8-22.8,37.7-22.8c23.4,0,42.5,19.1,42.5,42.5c0,1.9-0.1,4-0.4,6L233,108l6,1.7
	c13.5,3.8,22.9,16.3,22.9,30.3c0,10.6-5.4,20.3-13.8,26.1v-28.6H134.5V186c0,3.8-3.1,6.9-6.9,6.9s-6.9-3.1-6.9-6.9v-8.9h-15.8V223
	c0,7.5-6.1,13.6-13.6,13.6S77.6,230.5,77.6,223z M233.9,276.4H106.3v-30c7.6-5,12.7-13.5,12.7-23.3v-17.7c2.6,1.2,5.5,1.8,8.6,1.8
	c9.8,0,18.1-6.7,20.4-15.8h85.8V276.4z M276.4,233.9H248v-42.5h28.3V233.9z"/>
</svg>
