<?xml version="1.0" encoding="utf-8"?>
<!-- Generator: Adobe Illustrator 19.2.0, SVG Export Plug-In . SVG Version: 6.00 Build 0)  -->
<!DOCTYPE svg PUBLIC "-//W3C//DTD SVG 1.1//EN" "http://www.w3.org/Graphics/SVG/1.1/DTD/svg11.dtd">
<svg version="1.1" id="レイヤー_4" xmlns="http://www.w3.org/2000/svg" xmlns:xlink="http://www.w3.org/1999/xlink" x="0px"
	 y="0px" viewBox="0 0 340.2 340.2" enable-background="new 0 0 340.2 340.2" xml:space="preserve">
<path fill="#34CDD7" d="M249.5,110.7c12.8,17.1,19.7,37.7,19.7,59.4c0,54.7-44.5,99.2-99.2,99.2l0,0h0c-7.8,0-14.2-6.3-14.2-14.2
	c0-7.8,6.3-14.2,14.2-14.2h0v0c39.1,0,70.9-31.8,70.9-70.9c0-18.9-7.4-36.7-20.8-50.1l-10-10l49.1-49.1l20,20L249.5,110.7z
	 M170.1,127.6c-23.5,0-42.5,19-42.5,42.5s19,42.5,42.5,42.5s42.5-19,42.5-42.5S193.6,127.6,170.1,127.6z M184.3,85
	c0-7.8-6.3-14.2-14.2-14.2c0,0,0,0,0,0c-54.7,0-99.2,44.5-99.2,99.2c0,21.7,6.9,42.4,19.7,59.4l-29.8,29.8l20,20l49.1-49.1l-10-10
	c-13.4-13.4-20.8-31.2-20.8-50.1c0-39.1,31.8-70.9,70.9-70.9v0C177.9,99.2,184.3,92.9,184.3,85z"/>
</svg>
