<?xml version="1.0" encoding="utf-8"?>
<!-- Generator: Adobe Illustrator 19.2.0, SVG Export Plug-In . SVG Version: 6.00 Build 0)  -->
<!DOCTYPE svg PUBLIC "-//W3C//DTD SVG 1.1//EN" "http://www.w3.org/Graphics/SVG/1.1/DTD/svg11.dtd">
<svg version="1.1" id="レイヤー_4" xmlns="http://www.w3.org/2000/svg" xmlns:xlink="http://www.w3.org/1999/xlink" x="0px"
	 y="0px" viewBox="0 0 340.2 340.2" enable-background="new 0 0 340.2 340.2" xml:space="preserve">
<path fill="#34CDD7" d="M170.1,63.8c-58.6,0-106.3,47.7-106.3,106.3c0,58.6,47.7,106.3,106.3,106.3s106.3-47.7,106.3-106.3
	C276.4,111.5,228.7,63.8,170.1,63.8z M177.2,134.6c14-0.3,25.9-1.3,36-2.7c3.6,9.7,5.7,20.1,6.3,31.1h-42.3V134.6z M177.2,120.4
	V83.9c4.7,3.6,10.6,8.6,16.4,15.1c5.3,6.1,9.8,12.5,13.5,19.3C198.5,119.4,188.6,120.2,177.2,120.4z M163,83.9v36.5
	c-11.4-0.2-21.3-0.9-29.9-2c3.7-6.8,8.2-13.3,13.6-19.4C152.4,92.5,158.3,87.4,163,83.9z M163,134.6V163h-42.3
	c0.6-11,2.7-21.3,6.3-31C137.1,133.3,149,134.3,163,134.6z M106.5,163H78.2c1.1-14.3,5.5-27.7,12.4-39.5c5.1,1.9,12.4,4.1,22.2,6.1
	C109.5,139.4,107.1,150.5,106.5,163z M106.5,177.2c0.7,12.6,3.1,23.9,6.5,33.7c-9.6,2-16.9,4.4-22,6.3c-7.1-11.9-11.6-25.5-12.7-40
	H106.5z M120.7,177.2H163v28.4c-13.9,0.3-25.8,1.3-35.9,2.8C123.7,199.3,121.4,188.9,120.7,177.2z M163,219.8v36.5
	c-8.5-6.4-20.6-17.6-29.8-34.4C141.8,220.8,151.7,220,163,219.8z M177.2,256.3v-36.5c11.4,0.2,21.3,1,29.9,2
	c-3.7,6.8-8.2,13.3-13.6,19.3C187.7,247.7,181.9,252.7,177.2,256.3z M177.2,205.6v-28.4h42.3c-0.6,11-2.7,21.4-6.3,31.1
	C203,206.9,191.1,205.8,177.2,205.6z M233.7,177.2h28.2c-1.1,14.4-5.6,27.9-12.6,39.8c-5.2-1.9-12.5-4.2-22.1-6.2
	C230.6,200.9,233,189.7,233.7,177.2z M233.7,163c-0.7-12.5-3-23.7-6.4-33.5c9.8-2,17.1-4.3,22.1-6.2c7,11.8,11.4,25.3,12.5,39.7
	H233.7z M240.9,111.2c-4.6,1.5-11,3.3-19.2,4.8c-5.4-11.2-12-20.1-18-26.9c-2.4-2.7-4.8-5.1-7.1-7.3
	C214.2,87.2,229.5,97.5,240.9,111.2z M143.5,81.9c-2.3,2.2-4.7,4.7-7.1,7.3c-6.1,6.8-12.6,15.8-18.1,27c-8.2-1.5-14.6-3.3-19.3-4.8
	C110.5,97.6,125.9,87.2,143.5,81.9z M99.5,229.2c4.7-1.6,11-3.4,19-5c5.4,11.1,11.9,20,18,26.8c2.4,2.7,4.8,5.1,7.1,7.3
	C126.1,253,110.9,242.8,99.5,229.2z M196.7,258.3c2.3-2.2,4.7-4.6,7.1-7.3c6-6.8,12.6-15.7,18-26.9c8,1.6,14.3,3.3,19.1,4.9
	C229.4,242.7,214.1,253,196.7,258.3z"/>
</svg>
