<?xml version="1.0" encoding="utf-8"?>
<!-- Generator: Adobe Illustrator 19.2.0, SVG Export Plug-In . SVG Version: 6.00 Build 0)  -->
<!DOCTYPE svg PUBLIC "-//W3C//DTD SVG 1.1//EN" "http://www.w3.org/Graphics/SVG/1.1/DTD/svg11.dtd">
<svg version="1.1" id="レイヤー_4" xmlns="http://www.w3.org/2000/svg" xmlns:xlink="http://www.w3.org/1999/xlink" x="0px"
	 y="0px" viewBox="0 0 340.2 340.2" enable-background="new 0 0 340.2 340.2" xml:space="preserve">
<path fill="#FFFFFF" d="M297.6,205.5c0-22.7-15.3-41.8-36.1-47.7c0.4-2.9,0.6-5.9,0.6-9c0-35.2-28.6-63.8-63.8-63.8
	c-24.5,0-45.8,13.8-56.5,34.1c-6.3-3.7-13.6-5.8-21.5-5.8c-23.5,0-42.5,19-42.5,42.5c0,0.7,0,1.4,0.1,2.1
	C57.5,164,42.5,183,42.5,205.5c0,27.4,22.2,49.6,49.6,49.6c0,0,0,0,0,0v0h155.9v0C275.4,255.1,297.6,232.9,297.6,205.5z"/>
<path fill="#34CDD7" d="M92.2,266.5l-0.5,0c-33.4-0.3-60.4-27.5-60.4-60.9c0-24,14.3-45.7,35.7-55.5c2.9-27,25.8-48,53.5-48
	c5.8,0,11.6,0.9,17.1,2.8c14-19.4,36.5-31.1,60.9-31.1c41.4,0,75.1,33.7,75.1,75.1c0,0.4,0,0.9,0,1.3c21.3,9.8,35.4,31.4,35.4,55.3
	c0,33.6-27.3,60.9-60.9,60.9L92.2,266.5z M92.2,243.8l155.9,0c21.1,0,38.2-17.2,38.2-38.3c0-17-11.4-32.2-27.8-36.8L249,166l1.4-9.8
	c0.4-2.5,0.5-5,0.5-7.4c0-28.9-23.5-52.4-52.4-52.4c-19.5,0-37.3,10.8-46.4,28.1l-5.5,10.5l-10.2-6c-4.8-2.8-10.2-4.3-15.7-4.3
	c-17.2,0-31.2,14-31.2,31.2c0,0.5,0,1,0,1.5l0.4,8.9l-8.5,2.5c-16.1,4.8-27.4,19.9-27.4,36.7c0,21,17.1,38.2,38.1,38.3L92.2,243.8z
	 M73.2,216.7l3.5-4.1c2.2,2,5,3.3,7.6,3.3c3.1,0,4.8-1.3,4.8-3.5c0-2.2-1.8-2.9-4.5-4.1l-4-1.7c-3-1.3-6.1-3.7-6.1-8.1
	c0-4.9,4.3-8.7,10.4-8.7c3.5,0,7,1.4,9.4,3.9l-3,3.8c-1.9-1.6-3.9-2.5-6.4-2.5c-2.6,0-4.3,1.2-4.3,3.2c0,2.2,2.2,2.9,4.7,3.9
	l3.9,1.7c3.7,1.5,6,3.8,6,8.2c0,4.9-4.1,9.1-11,9.1C80.1,221.1,76.1,219.5,73.2,216.7z M98.4,205.4c0-9.8,5.5-15.5,13.4-15.5
	s13.4,5.7,13.4,15.5c0,9.7-5.5,15.7-13.4,15.7S98.4,215.1,98.4,205.4z M119.2,205.4c0-6.5-2.8-10.3-7.3-10.3s-7.3,3.9-7.3,10.3
	c0,6.4,2.8,10.5,7.3,10.5S119.2,211.8,119.2,205.4z M146.8,220.5l-6.2-11.4h-4.2v11.4h-6v-30h10.5c6.3,0,11.3,2.2,11.3,9.1
	c0,4.5-2.3,7.3-5.7,8.6l7,12.3H146.8z M136.4,204.4h3.9c3.9,0,6-1.6,6-4.8c0-3.2-2.1-4.3-6-4.3h-3.9V204.4z M173.5,212.8h-9.7
	l-2.1,7.7h-6.1l9.6-30h7.1l9.7,30h-6.3L173.5,212.8z M172.2,208.2l-0.9-3.3c-0.9-3.1-1.7-6.6-2.6-9.8h-0.2c-0.8,3.3-1.7,6.7-2.6,9.8
	l-0.9,3.3H172.2z M182.7,205.6c0-9.9,6.4-15.7,14-15.7c3.8,0,6.9,1.8,8.8,3.9l-3.2,3.8c-1.5-1.5-3.2-2.5-5.5-2.5
	c-4.5,0-8,3.9-8,10.4c0,6.5,3.1,10.5,7.8,10.5c2.6,0,4.6-1.2,6.2-3l3.2,3.7c-2.5,2.9-5.7,4.4-9.6,4.4
	C188.9,221.1,182.7,215.7,182.7,205.6z M207.7,205.4c0-9.8,5.5-15.5,13.4-15.5s13.4,5.7,13.4,15.5c0,9.7-5.5,15.7-13.4,15.7
	S207.7,215.1,207.7,205.4z M228.4,205.4c0-6.5-2.8-10.3-7.3-10.3s-7.3,3.9-7.3,10.3c0,6.4,2.8,10.5,7.3,10.5
	S228.4,211.8,228.4,205.4z M239.7,190.5h6.7l5.1,14c0.6,1.9,1.2,3.9,1.8,5.8h0.2c0.6-1.9,1.2-3.9,1.8-5.8l5-14h6.7v30h-5.5V208
	c0-2.8,0.4-7,0.7-9.9H262l-2.4,7.1l-4.6,12.6h-3.5l-4.7-12.6l-2.4-7.1h-0.2c0.3,2.8,0.8,7,0.8,9.9v12.5h-5.4V190.5z"/>
</svg>
