<?xml version="1.0" encoding="utf-8"?>
<!-- Generator: Adobe Illustrator 18.1.1, SVG Export Plug-In . SVG Version: 6.00 Build 0)  -->
<!DOCTYPE svg PUBLIC "-//W3C//DTD SVG 1.1//EN" "http://www.w3.org/Graphics/SVG/1.1/DTD/svg11.dtd">
<svg version="1.1" id="レイヤー_37" xmlns="http://www.w3.org/2000/svg" xmlns:xlink="http://www.w3.org/1999/xlink" x="0px"
	 y="0px" viewBox="0 0 340.2 340.2" enable-background="new 0 0 340.2 340.2" xml:space="preserve">
<g>
	<path fill="#34CDD7" d="M272.8,126.5c11.5,0,18.5-6.5,18.5-15.8c0-9.4-7-15.8-18.5-15.8c-11.5,0-18.2,6.5-18.2,15.8
		C254.5,120.1,261.2,126.5,272.8,126.5z M272.8,102.1c7.6,0,12.4,3.3,12.4,8.6c0,5.3-4.8,8.6-12.4,8.6c-7.6,0-12.1-3.3-12.1-8.6
		C260.6,105.4,265.2,102.1,272.8,102.1z"/>
	<path fill="#34CDD7" d="M280.6,259c-5.1,0-7.8,2.8-9.6,7.1l-2,4.6c-1.2,3-2.1,5.5-4.6,5.5c-2.3,0-3.7-2-3.7-5.1
		c0-2.9,1.1-5.3,2.9-7.5l-4.4-3.6c-2.9,2.9-4.5,7-4.5,11.1c0,7.2,4.4,12.2,10.2,12.2c5.2,0,8-3.6,9.5-7.2l2-4.7
		c1.3-3.2,2.2-5.3,4.8-5.3c2.5,0,4.1,2,4.1,5.6c0,3.1-1.6,6.5-3.9,9l4.9,4.1c3.3-3.4,5.2-8.2,5.2-12.9
		C291.3,263.8,286.3,259,280.6,259z"/>
	<path fill="#34CDD7" d="M290.6,82.5h-14.8c-3.3,0-8.3,0.6-11.6,0.9v-0.2l8.3-2.8l14.9-5.5v-4.1l-14.9-5.5l-8.3-2.9v-0.2
		c3.3,0.3,8.3,0.9,11.6,0.9h14.8v-6.5h-35.4v7.8l16.5,5.9c2.2,0.8,4.5,1.4,6.8,2.2v0.2c-2.3,0.7-4.6,1.4-6.8,2.2l-16.5,6v7.8h35.4
		V82.5z"/>
	<path fill="#34CDD7" d="M286.1,128.4l-4.4,3.7c2.1,1.9,3.5,4.3,3.5,7.3c0,5.6-4.6,9.2-12.3,9.2c-7.6,0-12.2-4-12.2-9.4
		c0-2.7,1.2-4.7,3-6.5l-4.5-3.7c-2.4,2.3-4.5,5.9-4.5,10.4c0,8.9,6.8,16.5,18.5,16.5c11.8,0,18.2-7.3,18.2-16.2
		C291.3,135.1,289.4,131.4,286.1,128.4z"/>
	<path fill="#34CDD7" d="M255.2,217.5h35.4v-7.1h-13.4v-4.9l13.4-7.3v-7.9l-14.5,8.3c-1.6-4.1-4.9-6.7-10.2-6.7
		c-8.1,0-10.7,5.9-10.7,13.3V217.5z M260.8,205.8c0-4.5,1.3-7,5.1-7c3.8,0,5.7,2.5,5.7,7v4.6h-10.8V205.8z"/>
	<path fill="#34CDD7" d="M272.8,223.5c-11.5,0-18.2,6.5-18.2,15.8c0,9.4,6.7,15.8,18.2,15.8c11.5,0,18.5-6.5,18.5-15.8
		C291.3,230,284.2,223.5,272.8,223.5z M272.8,248c-7.6,0-12.1-3.3-12.1-8.6c0-5.3,4.5-8.6,12.1-8.6c7.6,0,12.4,3.3,12.4,8.6
		C285.1,244.6,280.3,248,272.8,248z"/>
	<path fill="#34CDD7" d="M290.6,164.3v-7.4l-35.4,11.4v8.3l35.4,11.3v-7.2l-9.1-2.5v-11.5L290.6,164.3z M276,176.7l-3.9-1.1
		c-3.7-1.1-7.7-2.1-11.6-3v-0.2c3.8-1.1,7.9-2,11.6-3.1l3.9-1.1V176.7z"/>
	<path fill="#34CDD7" d="M226.8,42.5H85c-7.8,0-14.2,6.4-14.2,14.2v170.1l70.9,70.9h85c7.8,0,14.2-6.4,14.2-14.2V56.7
		C240.9,48.9,234.6,42.5,226.8,42.5z M184.3,70.9h19.8c4.7,0,8.5,3.8,8.5,8.5v19.8h-28.3V70.9z M141.7,70.9h28.3v28.3h-28.3V70.9z
		 M99.2,79.4c0-4.7,3.8-8.5,8.5-8.5h19.8v28.3H99.2V79.4z M99.2,113.4h113.4v62.4c0,4.7-3.8,8.5-8.5,8.5h-19.8v-42.5h-85V113.4z
		 M127.6,184.3h-19.8c-4.7,0-8.5-3.8-8.5-8.5v-19.8h28.3V184.3z M170.1,184.3h-28.3v-28.3h28.3V184.3z M213.3,263.9
		c-3.9,3.3-9.3,6-16.3,6c-11.9,0-20-8.3-20-19.6v-0.1c0-10.8,8.4-19.7,20-19.7c6.9,0,11,1.9,15,5.2l-5.3,6.4
		c-2.9-2.5-5.6-3.9-10-3.9c-6.1,0-10.9,5.4-10.9,11.9v0.1c0,7,4.8,12.1,11.5,12.1c3.1,0,5.8-0.8,7.9-2.3v-5.4h-8.4v-7.2h16.6V263.9z
		"/>
</g>
</svg>
