<?xml version="1.0" encoding="utf-8"?>
<!-- Generator: Adobe Illustrator 19.2.0, SVG Export Plug-In . SVG Version: 6.00 Build 0)  -->
<!DOCTYPE svg PUBLIC "-//W3C//DTD SVG 1.1//EN" "http://www.w3.org/Graphics/SVG/1.1/DTD/svg11.dtd">
<svg version="1.1" id="レイヤー_4" xmlns="http://www.w3.org/2000/svg" xmlns:xlink="http://www.w3.org/1999/xlink" x="0px"
	 y="0px" viewBox="0 0 340.2 340.2" enable-background="new 0 0 340.2 340.2" xml:space="preserve">
<path fill="#34CDD7" d="M145.5,184.9H56.7v-28.3h88.8c4.9-8.5,14.1-14.2,24.5-14.2c15.7,0,28.3,12.7,28.3,28.3
	c0,15.7-12.7,28.3-28.3,28.3C159.6,199,150.4,193.3,145.5,184.9z M253.9,100.6h29.5V78h-39.3l-34.9,37.1
	c-11.1-7.8-24.6-12.4-39.1-12.4c-18.2,0-35.3,7.1-48.1,19.9l16,16c8.6-8.6,20-13.3,32.1-13.3c25,0,45.4,20.3,45.4,45.4
	c0,25-20.3,45.4-45.4,45.4c-12.1,0-23.5-4.7-32.1-13.3l-16,16c12.8,12.8,29.9,19.9,48.1,19.9c14.7,0,28.3-4.7,39.4-12.6l36.1,36.1
	h37.9v-22.7H255l-29.5-29.5c5.8-8.2,9.9-17.7,11.6-28h46.3v-22.7h-46.3c-1.8-10.4-5.9-20.1-11.8-28.3L253.9,100.6z"/>
</svg>
