<?xml version="1.0" encoding="utf-8"?>
<!-- Generator: Adobe Illustrator 19.2.0, SVG Export Plug-In . SVG Version: 6.00 Build 0)  -->
<!DOCTYPE svg PUBLIC "-//W3C//DTD SVG 1.1//EN" "http://www.w3.org/Graphics/SVG/1.1/DTD/svg11.dtd">
<svg version="1.1" id="レイヤー_4" xmlns="http://www.w3.org/2000/svg" xmlns:xlink="http://www.w3.org/1999/xlink" x="0px"
	 y="0px" viewBox="0 0 340.2 340.2" enable-background="new 0 0 340.2 340.2" xml:space="preserve">
<path fill="#34CDD7" d="M271.8,180.5c-0.4-32.3-26.8-58.4-59.2-58.4c-18.5,0-35.6,8.6-46.7,22.9c-3.8-1.1-7.8-1.6-11.7-1.6
	c-3.5,0-6.9,0.4-10.3,1.2v-13.9l37.5-25c3.2-2.1,5-5.6,5-9.4V67.9h-22.7v22.3l-37.5,25c-3.2,2.1-5,5.6-5,9.4v66.9h22.7v-22.7
	c3.1-1.8,6.6-2.8,10.3-2.8c3.6,0,7.2,1,10.4,2.8l10.2,6l5.5-10.5c6.3-12.1,18.7-19.5,32.3-19.5c20.1,0,36.5,16.4,36.5,36.5
	c0,1.7-0.1,3.4-0.4,5.1l-1.4,9.8l9.5,2.7c11.1,3.1,18.8,13.4,18.8,24.9c0,14.3-11.6,25.9-25.8,25.9l-116.9,0l-0.2,0
	c-14.2-0.1-25.7-11.7-25.7-25.9v-99.2c0-3.9-2-7.6-5.4-9.6L64.5,91.8v-24H41.8v30.3c0,3.9,2,7.6,5.4,9.6l37.2,23.1v92.9
	c0,26.5,21.4,48.1,47.8,48.5l0.7,0l116.9,0c26.8,0,48.5-21.8,48.5-48.5C298.3,205.3,287.8,188.6,271.8,180.5z"/>
</svg>
