<?xml version="1.0" encoding="utf-8"?>
<!DOCTYPE svg PUBLIC "-//W3C//DTD SVG 1.1//EN" "http://www.w3.org/Graphics/SVG/1.1/DTD/svg11.dtd">
<svg version="1.1" id="SORACOM_Harvest" xmlns="http://www.w3.org/2000/svg" xmlns:xlink="http://www.w3.org/1999/xlink"
	 x="0px" y="0px" viewBox="0 0 340.1574707 340.1574707" enable-background="new 0 0 340.1574707 340.1574707" xml:space="preserve"
	>
<path fill="#34CDD7" d="M121.8898392,65.1968536H99.212677V42.5196838h22.6771622V65.1968536z M99.2126694,90.6078262H76.5355072
	v22.6771622h22.6771622V90.6078262z M141.7323608,76.5354309H119.055191v22.6771698h22.6771698V76.5354309z M70.8662186,62.3117867
	H48.1890488v22.677166h22.6771698V62.3117867z M281.586853,62.0155296l-1.2792969,5.901371
	c-0.2685547,1.2382813-6.8310547,30.4277344-29.0820465,38.8984375c-7.1347656,2.7158203-14.1503906,3.6240234-20.3349609,3.6240234
	c-3.5910645,0-6.8930664-0.309082-9.7880859-0.7441406v13.5332031c0.2492676,0.0483398,0.5074463,0.0942383,0.7539063,0.1435547
	c12.8466797,2.5693359,27.5927734,6.9775391,27.5927734,18.3603516v99.2128906
	c0,24.1923828-39.9277344,36.8505859-79.3701172,36.8505859s-79.3701172-12.6582031-79.3701172-36.8505859v-99.2128906
	c0-7.4150391,6.2592773-11.8691406,14.1730957-14.7844238v-7.8930664h22.677124v2.746582
	c3.5970459-0.5178223,7.3841553-0.9692383,11.338501-1.3449707v-9.9052734h22.6772461v8.6069336
	c2.8054199-0.0654297,5.6409912-0.1025391,8.5041504-0.1025391c12.0180664,0,23.6193848,0.5859375,34.015625,1.6875v-11.4265137
	c-1.2910156,0.1154785-2.6503906,0.189209-4.078125,0.189209c-4.5048828,0-9.6074219-0.6826172-14.7988281-2.7236328
	c-16.1259766-6.3447266-20.8408203-26.78125-21.3251953-29.0908203l-1.2119141-5.7763672l4.9873047-3.15625
	c0.8173828-0.5175781,20.2382813-12.5585976,37.7851563-2.1953125c1.8642578,1.1008301,3.4973145,2.3308105,4.9482422,3.6425781
	c3.1691895-5.3723145,7.8334961-10.5034218,14.6826172-14.416996c23.6894531-13.5380859,50.2343903,2.3886719,51.3535309,3.0732422
	L281.586853,62.0155296z M203.7460175,92.2723694c-0.6484375-3.7294922-2.3994141-8.3818359-6.9414063-11.0644531
	c-4.6103516-2.7226563-10.0585938-1.9599609-14.1171875-0.6699219c1.8339844,4.1728516,4.7587891,8.84375,8.7568359,10.4169922
	C195.8954315,92.7049866,200.37883,92.7069397,203.7460175,92.2723694z M227.0498505,158.9559631
	c-0.8153076,0.1965332-1.6312256,0.3835449-2.4449463,0.5620117c-0.0565186,0.012207-0.112793,0.0251465-0.1694336,0.0373535
	c-0.8647461,0.1882324-1.7261963,0.3676758-2.5791016,0.5383301c-13.9169922,2.7832031-32.3056641,4.3164063-51.7773438,4.3164063
	c-19.4726563,0-37.8603516-1.5332031-51.7783203-4.3164063c-0.8549805-0.1708984-1.7186279-0.3508301-2.5855713-0.5397949
	c-0.050415-0.0109863-0.100708-0.0222168-0.1512451-0.0334473c-0.8203125-0.1796875-1.6428223-0.3681641-2.4645996-0.5666504
	c-0.0782471-0.0187988-0.1558838-0.0380859-0.2340088-0.0571289c-0.800293-0.1950684-1.5982666-0.4001465-2.3914795-0.6154785
	c-0.0854492-0.0231934-0.1706543-0.0463867-0.2559814-0.0698242c-0.798584-0.2197266-1.5904541-0.4506836-2.373291-0.6936035
	c-0.0421143-0.0129395-0.0856934-0.0241699-0.1278076-0.0373535v83.4648438c0,6.734375,22.0117188,19.8427734,62.3623047,19.8427734
	s62.3623047-13.1083984,62.3623047-19.8427734v-83.4648438c-0.0444336,0.013916-0.090332,0.0256348-0.1347656,0.0393066
	c-0.7781982,0.2414551-1.5654297,0.4711914-2.3591309,0.6894531c-0.0908203,0.0251465-0.1812744,0.0495605-0.2722168,0.0744629
	c-0.7871094,0.213623-1.5786133,0.416748-2.3725586,0.6103516
	C227.2181854,158.9147034,227.134201,158.9354553,227.0498505,158.9559631z M219.2750702,140.1893616
	c-0.092041-0.0187988-0.1893311-0.0373535-0.2821045-0.0561523c-0.6693115-0.1357422-1.3632813-0.2700195-2.0760498-0.402832
	c-0.1721191-0.0322266-0.3425293-0.0644531-0.5170898-0.0961914c-0.7990723-0.1459961-1.6213379-0.2902832-2.4729004-0.4316406
	c-0.130249-0.0214844-0.2661133-0.0427246-0.3977051-0.064209c-0.769043-0.1257324-1.5605469-0.2492676-2.3713379-0.3708496
	c-0.1813965-0.0268555-0.3598633-0.0544434-0.5432129-0.0812988c-0.9172363-0.1345215-1.8596191-0.2658691-2.8286133-0.3933105
	c-0.171875-0.0224609-0.348877-0.0444336-0.5222168-0.0668945c-0.8713379-0.1123047-1.7634277-0.2216797-2.6755371-0.3278809
	c-0.1838379-0.0214844-0.3641357-0.043457-0.5498047-0.0646973c-1.0285645-0.1171875-2.0842285-0.2297363-3.1634521-0.3378906
	c-0.225708-0.0224609-0.456543-0.0441895-0.6844482-0.0664063c-0.9677734-0.0942383-1.9545898-0.1848145-2.9620361-0.2709961
	c-0.1844482-0.0158691-0.3643799-0.0324707-0.5501709-0.0480957c-1.1420898-0.095459-2.3127441-0.1843262-3.5048828-0.2685547
	c-0.2624512-0.0185547-0.5290527-0.0358887-0.7939453-0.0539551c-1.0955811-0.0742188-2.2094727-0.144043-3.3461914-0.208252
	c-0.1591797-0.0090332-0.3139648-0.0187988-0.473877-0.0275879c-1.2512207-0.0686035-2.5327148-0.1289063-3.8330078-0.184082
	c-0.310791-0.0131836-0.6247559-0.0253906-0.9382324-0.0375977c-1.2414551-0.0490723-2.5-0.0930176-3.7849121-0.1289063
	c-0.1057129-0.0029297-0.208252-0.0068359-0.3144531-0.0097656c-1.3666992-0.0368652-2.7651367-0.0634766-4.1804199-0.0847168
	c-0.3430176-0.005127-0.6884766-0.0095215-1.0344238-0.013916c-1.4433594-0.017334-2.9023438-0.0292969-4.3950195-0.0292969
	s-2.9516602,0.0119629-4.3950195,0.0292969c-0.3459473,0.0043945-0.6914063,0.0087891-1.0344238,0.013916
	c-1.4152832,0.0212402-2.8137207,0.0478516-4.1804199,0.0847168c-0.1062012,0.0029297-0.2087402,0.0068359-0.3144531,0.0097656
	c-1.2849121,0.0358887-2.543457,0.079834-3.7849121,0.1289063c-0.3134766,0.012207-0.6274414,0.0244141-0.9382324,0.0375977
	c-1.300293,0.0551758-2.5817871,0.1154785-3.8330078,0.184082c-0.1599121,0.0087891-0.3146973,0.0185547-0.473877,0.0275879
	c-1.1367188,0.064209-2.2506104,0.1340332-3.3461914,0.208252c-0.2648926,0.0180664-0.5314941,0.0354004-0.7939453,0.0539551
	c-1.1921387,0.0842285-2.362793,0.1730957-3.5048828,0.2685547c-0.185791,0.015625-0.3657227,0.0322266-0.5501709,0.0480957
	c-1.0074463,0.0861816-1.9942627,0.1767578-2.9620361,0.2709961c-0.2279053,0.0222168-0.4587402,0.0439453-0.6844482,0.0664063
	c-1.0792236,0.1081543-2.1348877,0.2207031-3.1634521,0.3378906c-0.1856689,0.0212402-0.3659668,0.0432129-0.5498047,0.0646973
	c-0.9121094,0.1062012-1.8041992,0.2155762-2.6755371,0.3278809c-0.1733398,0.0224609-0.3503418,0.0444336-0.5222168,0.0668945
	c-0.9689941,0.1274414-1.911377,0.2587891-2.8286133,0.3933105c-0.1833496,0.0268555-0.3618164,0.0544434-0.5432129,0.0812988
	c-0.810791,0.121582-1.6022949,0.2451172-2.3713379,0.3708496c-0.1315918,0.0214844-0.2674561,0.0427246-0.3977051,0.064209
	c-0.8515625,0.1413574-1.6738281,0.2856445-2.4729004,0.4316406c-0.1745605,0.0317383-0.3449707,0.0639648-0.5170898,0.0961914
	c-0.7127686,0.1328125-1.4067383,0.2670898-2.0760498,0.402832c-0.0927734,0.0187988-0.1900635,0.0373535-0.2821045,0.0561523
	c-0.7302246,0.1496582-1.4287109,0.3010254-2.1062012,0.453125c-0.1622314,0.036377-0.3209229,0.0727539-0.4802246,0.109375
	c-0.6147461,0.1411133-1.2116699,0.2824707-1.7807617,0.4243164c-0.057373,0.0144043-0.1186523,0.0285645-0.175415,0.0429688
	c-0.6063232,0.1523438-1.1784668,0.3051758-1.7318115,0.4575195c-0.0671387,0.0185547-0.1320801,0.0371094-0.1984863,0.0556641
	c0.0810547,0.0224609,0.1618652,0.0449219,0.2438965,0.067627c0.4748535,0.1306152,0.9685059,0.2612305,1.4821777,0.3918457
	c0.1101074,0.027832,0.2138672,0.0561523,0.3256836,0.0839844c0.6193848,0.1547852,1.2689209,0.3093262,1.942627,0.4628906
	c0.1606445,0.0368652,0.3288574,0.0732422,0.4926758,0.1098633c0.5510254,0.1230469,1.1201172,0.2453613,1.7059326,0.3669434
	c0.1898193,0.0393066,0.3770752,0.0791016,0.5706787,0.1181641c0.7470703,0.1516113,1.515625,0.3017578,2.3166504,0.4494629
	c0.0944824,0.0175781,0.1948242,0.0344238,0.2900391,0.0517578c0.7172852,0.1311035,1.4592285,0.2602539,2.2189941,0.3874512
	c0.2346191,0.0393066,0.4714355,0.0783691,0.7099609,0.1174316c0.7573242,0.1235352,1.5332031,0.2451172,2.3308105,0.3642578
	c0.1314697,0.0195313,0.2570801,0.0400391,0.3896484,0.0595703c0.9200439,0.1352539,1.871582,0.2666016,2.8439941,0.3952637
	c0.2442627,0.0324707,0.494873,0.0637207,0.7424316,0.095459c0.7910156,0.1018066,1.5993652,0.2006836,2.4239502,0.2973633
	c0.2547607,0.0297852,0.5059814,0.0600586,0.7640381,0.0893555c1.0395508,0.1181641,2.1016846,0.2321777,3.1928711,0.3410645
	c0.1882324,0.0187988,0.3841553,0.0361328,0.5739746,0.0546875c0.9273682,0.0900879,1.8742676,0.1767578,2.8380127,0.2597656
	c0.3231201,0.027832,0.6473389,0.0554199,0.9744873,0.0822754c1.067627,0.0878906,2.1529541,0.1721191,3.263916,0.2502441
	c0.105835,0.0075684,0.2075195,0.0158691,0.3137207,0.0231934c1.2077637,0.0834961,2.447998,0.1594238,3.7060547,0.2304688
	c0.3416748,0.0192871,0.6889648,0.0371094,1.0343018,0.0554199c1.0152588,0.0539551,2.046875,0.1035156,3.0938721,0.1486816
	c0.3146973,0.0134277,0.625,0.0283203,0.9425049,0.0410156c1.3189697,0.0529785,2.661499,0.0991211,4.0299072,0.137207
	c0.2841797,0.0078125,0.5759277,0.0134277,0.8623047,0.0205078c1.1306152,0.0288086,2.2784424,0.052002,3.4421387,0.0698242
	c0.3983154,0.0063477,0.7965088,0.0124512,1.1987305,0.017334c1.4475098,0.017334,2.9108887,0.029541,4.407959,0.029541
	s2.9604492-0.012207,4.407959-0.029541c0.4022217-0.0048828,0.800415-0.0109863,1.1987305-0.017334
	c1.1636963-0.0178223,2.3115234-0.0410156,3.4421387-0.0698242c0.286377-0.0070801,0.578125-0.0126953,0.8623047-0.0205078
	c1.3684082-0.0380859,2.7109375-0.0842285,4.0299072-0.137207c0.3175049-0.0126953,0.6278076-0.0275879,0.9425049-0.0410156
	c1.0469971-0.045166,2.0786133-0.0947266,3.0938721-0.1486816c0.3453369-0.0183105,0.692627-0.0361328,1.0343018-0.0554199
	c1.2580566-0.0710449,2.498291-0.1469727,3.7060547-0.2304688c0.1062012-0.0073242,0.2077637-0.015625,0.3134766-0.0231934
	c1.1113281-0.078125,2.1967773-0.1623535,3.2646484-0.2502441c0.3269043-0.0268555,0.6508789-0.0544434,0.9737549-0.0822754
	c0.9637451-0.0830078,1.9107666-0.1694336,2.8382568-0.2597656c0.1898193-0.0185547,0.3857422-0.0358887,0.5739746-0.0546875
	c1.0911865-0.1088867,2.1533203-0.2229004,3.1928711-0.3410645c0.2580566-0.0292969,0.5092773-0.0595703,0.7640381-0.0893555
	c0.824585-0.0966797,1.6329346-0.1955566,2.4239502-0.2973633c0.2475586-0.0317383,0.4981689-0.0629883,0.7424316-0.095459
	c0.9724121-0.1286621,1.9239502-0.2600098,2.8439941-0.3952637c0.1325684-0.0195313,0.2581787-0.0400391,0.3896484-0.0595703
	c0.7976074-0.1191406,1.5734863-0.2407227,2.3308105-0.3642578c0.2385254-0.0390625,0.4753418-0.078125,0.7099609-0.1174316
	c0.7597656-0.1271973,1.501709-0.2563477,2.2189941-0.3874512c0.0952148-0.017334,0.1955566-0.0341797,0.2900391-0.0517578
	c0.8010254-0.1477051,1.5695801-0.2978516,2.3166504-0.4494629c0.1936035-0.0390625,0.3808594-0.0788574,0.5706787-0.1181641
	c0.5858154-0.121582,1.1549072-0.2438965,1.7059326-0.3669434c0.1638184-0.0366211,0.3320313-0.072998,0.4926758-0.1098633
	c0.6737061-0.1535645,1.3232422-0.3081055,1.942627-0.4628906c0.1118164-0.027832,0.2155762-0.0561523,0.3256836-0.0839844
	c0.5136719-0.1306152,1.0073242-0.2612305,1.4821777-0.3918457c0.0820313-0.0227051,0.1628418-0.045166,0.2438965-0.067627
	c-0.0664063-0.0185547-0.1313477-0.0371094-0.1984863-0.0556641c-0.5533447-0.1523438-1.1254883-0.3051758-1.7318115-0.4575195
	c-0.0567627-0.0144043-0.118042-0.0285645-0.175415-0.0429688c-0.5690918-0.1418457-1.1660156-0.2832031-1.7807617-0.4243164
	c-0.1593018-0.0366211-0.3179932-0.072998-0.4802246-0.109375
	C220.7037811,140.490387,220.0052948,140.3390198,219.2750702,140.1893616z M261.7069702,70.5985413
	c-6.8134918-2.6972656-18.3857574-5.6464844-28.1845856-0.0419922
	c-9.6220703,5.4980469-12.0253906,15.5849609-12.5429688,21.8525391c5.625,1.15625,14.9052734,2.0478516,24.1953125-1.4882813
	C253.9911346,87.5643616,259.1630249,77.3514709,261.7069702,70.5985413z M140.3153534,215.6424866h-17.0078125v22.8857422
	h17.0078125V215.6424866z M165.8270721,184.2518616h-17.0078125v54.2763672h17.0078125V184.2518616z M191.3387909,204.094635
	h-17.0078125v34.4335938h17.0078125V204.094635z M216.8505096,195.5907288h-17.0078125v42.9375h17.0078125V195.5907288z"/>
</svg>
