<?xml version="1.0" encoding="utf-8"?>
<!-- Generator: Adobe Illustrator 19.2.0, SVG Export Plug-In . SVG Version: 6.00 Build 0)  -->
<!DOCTYPE svg PUBLIC "-//W3C//DTD SVG 1.1//EN" "http://www.w3.org/Graphics/SVG/1.1/DTD/svg11.dtd">
<svg version="1.1" id="レイヤー_4" xmlns="http://www.w3.org/2000/svg" xmlns:xlink="http://www.w3.org/1999/xlink" x="0px"
	 y="0px" viewBox="0 0 340.2 340.2" enable-background="new 0 0 340.2 340.2" xml:space="preserve">
<path fill="#34CDD7" d="M296,189.8c-3.2-7.8-1-19.4-6.9-25.3c-3.1-3.1-7.8-3.9-12.7-4.5v-53.7c0-7.8-6.3-14.2-14.2-14.2H78
	c-7.8,0-14.2,6.3-14.2,14.2v127.6c0,7.8,6.3,14.2,14.2,14.2h110.4c0.6,4.9,1.4,9.6,4.5,12.7c5.9,5.9,17.5,3.7,25.3,6.9
	c7.5,3.1,14.1,13,22.8,13c8.6,0,15.3-9.9,22.8-13c7.8-3.2,19.4-1,25.3-6.9c5.9-5.9,3.7-17.5,6.9-25.3c3.1-7.5,13-14.1,13-22.8
	S299.1,197.3,296,189.8z M185.9,189.8c-1,2.5-2.8,4.8-4.7,7.2h-34.7v-11.3h40.6C186.8,187.1,186.5,188.5,185.9,189.8z M192.8,164.5
	c-2.5,2.5-3.5,6-4.1,9.8h-5.9V163h11.9C194.1,163.4,193.4,163.9,192.8,164.5z M165.3,124.9l4.8-15.8l4.8,15.8l16.5-0.4l-13.6,9.4
	l5.4,15.6l-13.1-10l-13.1,10l5.4-15.6l-13.6-9.4L165.3,124.9z M92.1,163h72.6v11.3H92.1V163z M92.1,185.7h36.3V197H92.1V185.7z
	 M92.1,208.4h81.6c-0.5,1.4-0.8,2.8-0.8,4.3c0,2.5,0.8,4.8,2.1,7.1H92.1V208.4z M290.8,217.8c-2.8,3.4-5.9,7.3-7.9,12.1
	c-2.1,5-2.6,10-3.1,14.5c-0.2,1.9-0.5,4.6-0.9,6c-1.5,0.4-4.2,0.7-6,0.9c-4.5,0.5-9.5,1.1-14.5,3.1c-4.9,2-8.7,5.1-12.1,7.9
	c-1.6,1.3-3.9,3.1-5.2,3.9c-1.3-0.7-3.6-2.6-5.2-3.9c-3.4-2.8-7.3-5.9-12.1-7.9c-5-2.1-10-2.6-14.5-3.1c-1.9-0.2-4.6-0.5-6-0.9
	c-0.4-1.5-0.7-4.2-0.9-6c-0.5-4.5-1.1-9.5-3.1-14.5c-2-4.9-5.1-8.7-7.9-12.1c-1.3-1.6-3.1-3.9-3.9-5.2c0.7-1.3,2.6-3.6,3.9-5.2
	c2.8-3.4,5.9-7.3,7.9-12.1c2.1-5,2.6-10,3.1-14.5c0.2-1.9,0.5-4.6,0.9-6c1.5-0.4,4.2-0.7,6-0.9c4.5-0.5,9.5-1.1,14.5-3.1
	c4.9-2,8.7-5.1,12.1-7.9c1.6-1.3,3.9-3.1,5.2-3.9c1.3,0.7,3.6,2.6,5.2,3.9c3.4,2.8,7.3,5.9,12.1,7.9c5,2.1,10,2.6,14.5,3.1
	c1.9,0.2,4.6,0.5,6,0.9c0.4,1.5,0.7,4.2,0.9,6c0.5,4.5,1.1,9.5,3.1,14.5c2,4.9,5.1,8.7,7.9,12.1c1.3,1.6,3.1,3.9,3.9,5.2
	C293.9,213.9,292.1,216.2,290.8,217.8z M238.8,244.6l-38.9-29.3l10.2-13.6l25.8,19.4l28.2-35.1l13.3,10.6L238.8,244.6z"/>
</svg>
