<?xml version="1.0" encoding="utf-8"?>
<!-- Generator: Adobe Illustrator 19.2.0, SVG Export Plug-In . SVG Version: 6.00 Build 0)  -->
<!DOCTYPE svg PUBLIC "-//W3C//DTD SVG 1.1//EN" "http://www.w3.org/Graphics/SVG/1.1/DTD/svg11.dtd">
<svg version="1.1" id="レイヤー_4" xmlns="http://www.w3.org/2000/svg" xmlns:xlink="http://www.w3.org/1999/xlink" x="0px"
	 y="0px" viewBox="0 0 340.2 340.2" enable-background="new 0 0 340.2 340.2" xml:space="preserve">
<path fill="#34CDD7" d="M240.9,42.5H99.2c-7.8,0-14.2,6.4-14.2,14.2v170.1l70.9,70.9h85c7.8,0,14.2-6.4,14.2-14.2V56.7
	C255.1,48.9,248.7,42.5,240.9,42.5z M198.4,70.9h19.8c4.7,0,8.5,3.8,8.5,8.5v19.8h-28.3V70.9z M155.9,70.9h28.3v28.3h-28.3V70.9z
	 M113.4,79.4c0-4.7,3.8-8.5,8.5-8.5h19.8v28.3h-28.3V79.4z M113.4,113.4h113.4v62.4c0,4.7-3.8,8.5-8.5,8.5h-19.8v-42.5h-85V113.4z
	 M141.7,184.3h-19.8c-4.7,0-8.5-3.8-8.5-8.5v-19.8h28.3V184.3z M155.9,184.3v-28.3h28.3v28.3H155.9z M221.6,275l-17.5-13.3
	L186.6,275l7.2-20.8l-18.1-12.5l22,0.5l6.4-21.1l6.4,21.1l22-0.5l-18.1,12.5L221.6,275z"/>
</svg>
