<?xml version="1.0" encoding="utf-8"?>
<!-- Generator: Adobe Illustrator 18.1.1, SVG Export Plug-In . SVG Version: 6.00 Build 0)  -->
<!DOCTYPE svg PUBLIC "-//W3C//DTD SVG 1.1//EN" "http://www.w3.org/Graphics/SVG/1.1/DTD/svg11.dtd">
<svg version="1.1" id="レイヤー_37" xmlns="http://www.w3.org/2000/svg" xmlns:xlink="http://www.w3.org/1999/xlink" x="0px"
	 y="0px" viewBox="0 0 340.2 340.2" enable-background="new 0 0 340.2 340.2" xml:space="preserve">
<path fill="#34CDD7" d="M275.1,170.1c0-26.9-12.3-49.6-26.9-49.6c-0.3,0-35.2-0.1-73.6-7c-27.7-5-51.4-19.4-63.3-27.7
	c-3.6-5.2-7.9-7.8-12.8-7.8c-11.8,0-19.7,16.2-24.3,29.7c-6,17.8-9.3,39.9-9.3,62.4s3.3,44.6,9.3,62.4c4.6,13.6,12.5,29.7,24.3,29.7
	c4.9,0,9.1-2.6,12.8-7.8c11.9-8.3,35.6-22.7,63.3-27.7c38.3-6.9,73.2-7,73.6-7l0,0C262.8,219.7,275.1,197,275.1,170.1z M83.3,211.6
	c-2.3-10.7-3.6-22.5-4-34.4h33c-0.2,8.2-0.6,16.2-1.4,23.8C98.7,204.9,89.2,208.9,83.3,211.6z M110.9,139.2
	c0.7,7.6,1.2,15.6,1.4,23.8h-33c0.4-11.9,1.8-23.7,4-34.4C89.2,131.3,98.7,135.3,110.9,139.2z M260.6,163h-20.4
	c0.2-2.7,0.4-5.2,0.8-7.5c7.7,0.2,14,0.3,18.6,0.4C260,158.1,260.4,160.5,260.6,163z M226,163h-12.4c0.1-3,0.3-5.8,0.5-8.5
	c4.4,0.2,8.6,0.4,12.7,0.6C226.4,157.7,226.2,160.4,226,163z M186.3,163c-0.1-3.5-0.2-7-0.4-10.2c4.8,0.3,9.4,0.6,14,0.9
	c-0.2,3-0.4,6.1-0.5,9.3H186.3z M199.4,177.2c0.1,3.2,0.3,6.3,0.5,9.3c-4.6,0.3-9.4,0.6-14.3,0.9c0.2-3.3,0.4-6.7,0.5-10.3H199.4z
	 M215.8,140.3c0.4-2.6,0.9-5,1.3-7.2c5.5,0.4,10.6,0.8,14.9,1c-0.9,2.1-1.7,4.4-2.4,6.8C225.2,140.8,220.6,140.6,215.8,140.3z
	 M201.6,139.6c-5.4-0.3-11.1-0.7-16.8-1.1c-0.4-3.3-0.8-6.3-1.2-9.1c6.7,1,13.2,1.8,19.3,2.5C202.5,134.2,202,136.8,201.6,139.6z
	 M170.4,137.3c-5.2-0.5-10.3-1.2-15.3-2c-0.8-4.9-1.7-9.2-2.6-12.9c5.2,1.7,10.7,3.2,16.4,4.4C169.4,129.9,169.9,133.4,170.4,137.3z
	 M171.4,151.6c0.1,0,0.2,0,0.2,0c0.2,3.6,0.4,7.4,0.5,11.3h-14.3c-0.2-4.6-0.4-8.9-0.8-13C161.7,150.6,166.5,151.2,171.4,151.6z
	 M143.7,163h-17.2c-0.1-6.7-0.4-13.2-0.9-19.5c5.3,1.4,11,2.8,17,4C143,152.3,143.5,157.5,143.7,163z M126.5,177.2h17.2
	c-0.2,5.5-0.6,10.7-1.2,15.5c-6,1.2-11.6,2.5-17,4C126,190.4,126.3,183.8,126.5,177.2z M157.9,177.2H172c-0.1,4-0.4,7.8-0.7,11.4
	c-4.9,0.4-9.7,1-14.4,1.6C157.4,186.1,157.7,181.7,157.9,177.2z M169.8,202.9c-0.6,4.1-1.2,7.6-1.7,10.6c-5.4,1.1-10.6,2.6-15.6,4.2
	c0.9-3.7,1.8-8,2.6-12.9C159.9,204.1,164.8,203.4,169.8,202.9z M184.3,201.7c5.9-0.4,11.7-0.8,17.3-1.2c0.4,2.8,0.9,5.4,1.4,7.7
	c-6.3,0.7-13,1.5-20,2.6C183.4,208.2,183.8,205.1,184.3,201.7z M215.8,199.8c4.8-0.2,9.4-0.4,13.8-0.6c0.7,2.4,1.5,4.7,2.4,6.8
	c-4.3,0.2-9.3,0.5-14.9,1C216.7,204.8,216.2,202.4,215.8,199.8z M214.1,185.7c-0.2-2.7-0.4-5.6-0.5-8.5H226c0.2,2.6,0.4,5.3,0.7,8
	C222.7,185.3,218.5,185.5,214.1,185.7z M240.2,177.2h20.4c-0.2,2.5-0.6,4.9-1.1,7.1c-4.6,0.1-10.9,0.2-18.6,0.4
	C240.6,182.3,240.4,179.8,240.2,177.2z M248.4,134.7c1.3,0.3,3.7,2.7,6.1,7c-2.9-0.1-6.3-0.1-10.1-0.2
	C245.8,137.6,247.3,135.3,248.4,134.7z M136,116.1c0.9,2.9,2.6,8.6,4.1,16.4c-5.7-1.3-11.2-2.7-16.2-4.1c-1-7.3-2.2-14-3.7-20.1
	c0,0,0-0.1,0-0.1C124.9,110.8,130.2,113.5,136,116.1z M97.5,93.2c1,0.7,2.1,1.6,3.4,2.5c1.9,3.4,4.2,9.4,6.4,19.3
	c0.6,2.7,1.1,5.5,1.6,8.4c-10.1-3.6-17.7-6.9-21.9-8.9C91,101.5,95.2,95.5,97.5,93.2z M86.9,225.5c4.2-2,11.8-5.3,21.9-8.9
	c-0.5,2.9-1,5.7-1.6,8.4c-2.2,10-4.5,15.9-6.4,19.3c-1.3,1-2.4,1.8-3.4,2.5C95.2,244.6,91,238.6,86.9,225.5z M120.2,231.9
	c1.5-6,2.7-12.8,3.7-20.1c5.1-1.5,10.5-2.9,16.2-4.1c-1.6,7.8-3.2,13.5-4.1,16.4c-5.7,2.6-11,5.3-15.8,7.9
	C120.2,232,120.2,231.9,120.2,231.9z M248.4,205.5c-1.1-0.6-2.6-3-4-6.7c3.8-0.1,7.1-0.2,10.1-0.2
	C252.1,202.8,249.7,205.2,248.4,205.5z"/>
</svg>
