<?xml version="1.0" encoding="utf-8"?>
<!-- Generator: Adobe Illustrator 18.1.1, SVG Export Plug-In . SVG Version: 6.00 Build 0)  -->
<!DOCTYPE svg PUBLIC "-//W3C//DTD SVG 1.1//EN" "http://www.w3.org/Graphics/SVG/1.1/DTD/svg11.dtd">
<svg version="1.1" id="レイヤー_37" xmlns="http://www.w3.org/2000/svg" xmlns:xlink="http://www.w3.org/1999/xlink" x="0px"
	 y="0px" viewBox="0 0 340.2 340.2" enable-background="new 0 0 340.2 340.2" xml:space="preserve">
<path fill="#34CDD7" d="M240.9,181.4h-46.3c-5.4,32.1-33.4,56.7-67.1,56.7c-18.2,0-35.3-7.1-48.1-19.9l16-16
	c8.6,8.6,20,13.3,32.1,13.3c25,0,45.4-20.3,45.4-45.4s-20.3-45.4-45.4-45.4c-12.1,0-23.5,4.7-32.1,13.3l-16-16
	c12.8-12.8,29.9-19.9,48.1-19.9c33.6,0,61.7,24.6,67.1,56.7h46.3V181.4z M127.6,141.7c-10.5,0-19.6,5.7-24.5,14.2H56.7v28.3H103
	c4.9,8.5,14.1,14.2,24.5,14.2c15.7,0,28.3-12.7,28.3-28.3C155.9,154.4,143.2,141.7,127.6,141.7z M283.5,56.7l-82.2,48.8v35.6h23.5
	v-22.5L260,97.7v144.7l-35.2-20.9v-22.5h-23.5v35.6l82.2,48.8V56.7z"/>
</svg>
