<?xml version="1.0" encoding="utf-8"?>
<!-- Generator: Adobe Illustrator 19.2.0, SVG Export Plug-In . SVG Version: 6.00 Build 0)  -->
<!DOCTYPE svg PUBLIC "-//W3C//DTD SVG 1.1//EN" "http://www.w3.org/Graphics/SVG/1.1/DTD/svg11.dtd">
<svg version="1.1" id="レイヤー_4" xmlns="http://www.w3.org/2000/svg" xmlns:xlink="http://www.w3.org/1999/xlink" x="0px"
	 y="0px" viewBox="0 0 340.2 340.2" enable-background="new 0 0 340.2 340.2" xml:space="preserve">
<path fill="#34CDD7" d="M155.9,170.1c0,15.7-12.7,28.3-28.3,28.3c-10.5,0-19.6-5.7-24.5-14.2H56.7v-28.3H103
	c4.9-8.5,14.1-14.2,24.5-14.2C143.2,141.7,155.9,154.4,155.9,170.1z M283.5,141.7v56.7h-56.7v-14.2h-32.7
	c-6.5,30.7-33.9,53.9-66.5,53.9c-18.2,0-35.3-7.1-48.1-19.9l16-16c8.6,8.6,20,13.3,32.1,13.3c25,0,45.4-20.3,45.4-45.4
	c0-25-20.3-45.4-45.4-45.4c-12.1,0-23.5,4.7-32.1,13.3l-16-16c12.9-12.8,29.9-19.9,48.1-19.9c32.7,0,60,23.1,66.5,53.9h32.7v-14.2
	H283.5z M283.5,180.1h-14.6v9.1h14.6V180.1z M283.5,165.5h-14.6v9.1h14.6V165.5z M283.5,150.9h-14.6v9.1h14.6V150.9z"/>
</svg>
